<mxfile host="app.diagrams.net" agent="Mozilla/5.0 (Windows NT 10.0; Win64; x64) AppleWebKit/537.36 (KHTML, like Gecko) Chrome/139.0.0.0 Safari/537.36" version="28.1.0">
  <diagram name="Page-1" id="iDUjFyiatcSbmVKgz-FS">
    <mxGraphModel dx="1678" dy="874" grid="1" gridSize="10" guides="1" tooltips="1" connect="1" arrows="1" fold="1" page="1" pageScale="1" pageWidth="827" pageHeight="1169" math="0" shadow="0">
      <root>
        <mxCell id="0" />
        <mxCell id="1" parent="0" />
        <mxCell id="fdY3iPm0eYBTXGuh3AIi-99" style="edgeStyle=orthogonalEdgeStyle;rounded=0;orthogonalLoop=1;jettySize=auto;html=1;" parent="1" edge="1">
          <mxGeometry relative="1" as="geometry">
            <mxPoint x="1020" y="2309" as="targetPoint" />
          </mxGeometry>
        </mxCell>
        <mxCell id="fdY3iPm0eYBTXGuh3AIi-100" style="edgeStyle=orthogonalEdgeStyle;rounded=0;orthogonalLoop=1;jettySize=auto;html=1;" parent="1" edge="1">
          <mxGeometry relative="1" as="geometry">
            <mxPoint x="1020" y="2392" as="targetPoint" />
          </mxGeometry>
        </mxCell>
        <mxCell id="fdY3iPm0eYBTXGuh3AIi-183" value="ทบทวนสัญลักษณ์" style="swimlane;fontFamily=Sarabun;fontSource=https://fonts.googleapis.com/css?family=Sarabun;" parent="1" vertex="1">
          <mxGeometry x="800" y="690" width="640" height="290" as="geometry" />
        </mxCell>
        <mxCell id="fdY3iPm0eYBTXGuh3AIi-184" value="&lt;font data-font-src=&quot;https://fonts.googleapis.com/css?family=Sarabun&quot; face=&quot;Sarabun&quot;&gt;เริ่มต้น&lt;/font&gt;" style="ellipse;whiteSpace=wrap;html=1;" parent="fdY3iPm0eYBTXGuh3AIi-183" vertex="1">
          <mxGeometry x="20" y="40" width="130" height="30" as="geometry" />
        </mxCell>
        <mxCell id="fdY3iPm0eYBTXGuh3AIi-185" value="" style="endArrow=classic;html=1;rounded=0;" parent="fdY3iPm0eYBTXGuh3AIi-183" edge="1">
          <mxGeometry width="50" height="50" relative="1" as="geometry">
            <mxPoint x="84.5" y="70" as="sourcePoint" />
            <mxPoint x="84.5" y="120" as="targetPoint" />
          </mxGeometry>
        </mxCell>
        <mxCell id="fdY3iPm0eYBTXGuh3AIi-186" value="&lt;font face=&quot;Sarabun&quot;&gt;สิ้นสุด&lt;/font&gt;" style="ellipse;whiteSpace=wrap;html=1;" parent="fdY3iPm0eYBTXGuh3AIi-183" vertex="1">
          <mxGeometry x="150" y="90" width="130" height="30" as="geometry" />
        </mxCell>
        <mxCell id="fdY3iPm0eYBTXGuh3AIi-187" value="" style="endArrow=classic;html=1;rounded=0;" parent="fdY3iPm0eYBTXGuh3AIi-183" edge="1">
          <mxGeometry width="50" height="50" relative="1" as="geometry">
            <mxPoint x="214.5" y="40" as="sourcePoint" />
            <mxPoint x="214.5" y="90" as="targetPoint" />
          </mxGeometry>
        </mxCell>
        <mxCell id="fdY3iPm0eYBTXGuh3AIi-188" value="กระบวนการ" style="rounded=0;whiteSpace=wrap;html=1;fontFamily=Sarabun;fontSource=https://fonts.googleapis.com/css?family=Sarabun;" parent="fdY3iPm0eYBTXGuh3AIi-183" vertex="1">
          <mxGeometry x="320" y="70" width="120" height="30" as="geometry" />
        </mxCell>
        <mxCell id="fdY3iPm0eYBTXGuh3AIi-189" value="" style="endArrow=classic;html=1;rounded=0;" parent="fdY3iPm0eYBTXGuh3AIi-183" edge="1">
          <mxGeometry width="50" height="50" relative="1" as="geometry">
            <mxPoint x="379" y="40" as="sourcePoint" />
            <mxPoint x="379.5" y="70" as="targetPoint" />
          </mxGeometry>
        </mxCell>
        <mxCell id="fdY3iPm0eYBTXGuh3AIi-190" value="" style="endArrow=classic;html=1;rounded=0;" parent="fdY3iPm0eYBTXGuh3AIi-183" edge="1">
          <mxGeometry width="50" height="50" relative="1" as="geometry">
            <mxPoint x="379.75" y="100" as="sourcePoint" />
            <mxPoint x="380.25" y="130" as="targetPoint" />
          </mxGeometry>
        </mxCell>
        <mxCell id="fdY3iPm0eYBTXGuh3AIi-191" value="ประโยคเงื่อนไข" style="rhombus;whiteSpace=wrap;html=1;fontFamily=Sarabun;fontSource=https://fonts.googleapis.com/css?family=Sarabun;" parent="fdY3iPm0eYBTXGuh3AIi-183" vertex="1">
          <mxGeometry x="490" y="60" width="100" height="60" as="geometry" />
        </mxCell>
        <mxCell id="fdY3iPm0eYBTXGuh3AIi-192" value="" style="endArrow=classic;html=1;rounded=0;" parent="fdY3iPm0eYBTXGuh3AIi-183" edge="1">
          <mxGeometry width="50" height="50" relative="1" as="geometry">
            <mxPoint x="539.71" y="30" as="sourcePoint" />
            <mxPoint x="540.21" y="60" as="targetPoint" />
          </mxGeometry>
        </mxCell>
        <mxCell id="fdY3iPm0eYBTXGuh3AIi-193" value="" style="endArrow=classic;html=1;rounded=0;" parent="fdY3iPm0eYBTXGuh3AIi-183" edge="1">
          <mxGeometry width="50" height="50" relative="1" as="geometry">
            <mxPoint x="539.71" y="120" as="sourcePoint" />
            <mxPoint x="540" y="175" as="targetPoint" />
          </mxGeometry>
        </mxCell>
        <mxCell id="fdY3iPm0eYBTXGuh3AIi-194" value="จริง" style="edgeLabel;html=1;align=center;verticalAlign=middle;resizable=0;points=[];fontFamily=Sarabun;fontSource=https://fonts.googleapis.com/css?family=Sarabun;" parent="fdY3iPm0eYBTXGuh3AIi-193" vertex="1" connectable="0">
          <mxGeometry x="-0.4142" y="-1" relative="1" as="geometry">
            <mxPoint as="offset" />
          </mxGeometry>
        </mxCell>
        <mxCell id="fdY3iPm0eYBTXGuh3AIi-195" value="" style="endArrow=classic;html=1;rounded=0;exitX=1;exitY=0.5;exitDx=0;exitDy=0;" parent="fdY3iPm0eYBTXGuh3AIi-183" source="fdY3iPm0eYBTXGuh3AIi-191" edge="1">
          <mxGeometry width="50" height="50" relative="1" as="geometry">
            <mxPoint x="620" y="95" as="sourcePoint" />
            <mxPoint x="610" y="175" as="targetPoint" />
            <Array as="points">
              <mxPoint x="610" y="90" />
            </Array>
          </mxGeometry>
        </mxCell>
        <mxCell id="fdY3iPm0eYBTXGuh3AIi-196" value="&lt;font data-font-src=&quot;https://fonts.googleapis.com/css?family=Sarabun&quot; face=&quot;Sarabun&quot;&gt;เท็จ&lt;/font&gt;" style="edgeLabel;html=1;align=center;verticalAlign=middle;resizable=0;points=[];" parent="fdY3iPm0eYBTXGuh3AIi-195" vertex="1" connectable="0">
          <mxGeometry x="-0.0019" y="-2" relative="1" as="geometry">
            <mxPoint as="offset" />
          </mxGeometry>
        </mxCell>
        <mxCell id="fdY3iPm0eYBTXGuh3AIi-197" value="&lt;font data-font-src=&quot;https://fonts.googleapis.com/css?family=Sarabun&quot; face=&quot;Sarabun&quot;&gt;ฟังก์ชัน/โมดูล&lt;/font&gt;" style="shape=process;whiteSpace=wrap;html=1;backgroundOutline=1;" parent="fdY3iPm0eYBTXGuh3AIi-183" vertex="1">
          <mxGeometry x="25" y="180" width="120" height="30" as="geometry" />
        </mxCell>
        <mxCell id="fdY3iPm0eYBTXGuh3AIi-198" value="" style="endArrow=classic;html=1;rounded=0;" parent="fdY3iPm0eYBTXGuh3AIi-183" edge="1">
          <mxGeometry width="50" height="50" relative="1" as="geometry">
            <mxPoint x="84.70999999999998" y="150" as="sourcePoint" />
            <mxPoint x="85.20999999999998" y="180" as="targetPoint" />
          </mxGeometry>
        </mxCell>
        <mxCell id="fdY3iPm0eYBTXGuh3AIi-199" value="" style="endArrow=classic;html=1;rounded=0;" parent="fdY3iPm0eYBTXGuh3AIi-183" edge="1">
          <mxGeometry width="50" height="50" relative="1" as="geometry">
            <mxPoint x="84.70999999999998" y="210" as="sourcePoint" />
            <mxPoint x="85.20999999999998" y="240" as="targetPoint" />
          </mxGeometry>
        </mxCell>
        <mxCell id="fdY3iPm0eYBTXGuh3AIi-200" value="" style="strokeWidth=2;html=1;shape=mxgraph.flowchart.start_2;whiteSpace=wrap;" parent="fdY3iPm0eYBTXGuh3AIi-183" vertex="1">
          <mxGeometry x="205" y="185" width="20" height="20" as="geometry" />
        </mxCell>
        <mxCell id="fdY3iPm0eYBTXGuh3AIi-201" value="" style="endArrow=classic;html=1;rounded=0;" parent="fdY3iPm0eYBTXGuh3AIi-183" edge="1">
          <mxGeometry width="50" height="50" relative="1" as="geometry">
            <mxPoint x="214.70999999999998" y="155" as="sourcePoint" />
            <mxPoint x="215.20999999999998" y="185" as="targetPoint" />
          </mxGeometry>
        </mxCell>
        <mxCell id="fdY3iPm0eYBTXGuh3AIi-202" value="" style="endArrow=classic;html=1;rounded=0;entryX=0;entryY=0.5;entryDx=0;entryDy=0;entryPerimeter=0;" parent="fdY3iPm0eYBTXGuh3AIi-183" target="fdY3iPm0eYBTXGuh3AIi-200" edge="1">
          <mxGeometry width="50" height="50" relative="1" as="geometry">
            <mxPoint x="189.99999999999997" y="155" as="sourcePoint" />
            <mxPoint x="190.49999999999997" y="185" as="targetPoint" />
            <Array as="points">
              <mxPoint x="190" y="180" />
            </Array>
          </mxGeometry>
        </mxCell>
        <mxCell id="fdY3iPm0eYBTXGuh3AIi-203" value="" style="endArrow=classic;html=1;rounded=0;entryX=1;entryY=0.5;entryDx=0;entryDy=0;entryPerimeter=0;" parent="fdY3iPm0eYBTXGuh3AIi-183" target="fdY3iPm0eYBTXGuh3AIi-200" edge="1">
          <mxGeometry width="50" height="50" relative="1" as="geometry">
            <mxPoint x="239.99999999999997" y="155" as="sourcePoint" />
            <mxPoint x="240.49999999999997" y="185" as="targetPoint" />
            <Array as="points">
              <mxPoint x="240" y="180" />
            </Array>
          </mxGeometry>
        </mxCell>
        <mxCell id="fdY3iPm0eYBTXGuh3AIi-204" value="" style="endArrow=classic;html=1;rounded=0;" parent="fdY3iPm0eYBTXGuh3AIi-183" edge="1">
          <mxGeometry width="50" height="50" relative="1" as="geometry">
            <mxPoint x="214.70999999999998" y="205" as="sourcePoint" />
            <mxPoint x="215.20999999999998" y="235" as="targetPoint" />
          </mxGeometry>
        </mxCell>
        <mxCell id="fdY3iPm0eYBTXGuh3AIi-205" value="&lt;font data-font-src=&quot;https://fonts.googleapis.com/css?family=Sarabun&quot; face=&quot;Sarabun&quot;&gt;ตัวเชื่อม&lt;/font&gt;" style="text;html=1;align=center;verticalAlign=middle;resizable=0;points=[];autosize=1;strokeColor=none;fillColor=none;" parent="fdY3iPm0eYBTXGuh3AIi-183" vertex="1">
          <mxGeometry x="220" y="190" width="60" height="30" as="geometry" />
        </mxCell>
        <mxCell id="fdY3iPm0eYBTXGuh3AIi-206" value="" style="endArrow=classic;html=1;rounded=0;" parent="fdY3iPm0eYBTXGuh3AIi-183" edge="1">
          <mxGeometry width="50" height="50" relative="1" as="geometry">
            <mxPoint x="353.71" y="165" as="sourcePoint" />
            <mxPoint x="354.21" y="195" as="targetPoint" />
          </mxGeometry>
        </mxCell>
        <mxCell id="fdY3iPm0eYBTXGuh3AIi-207" value="" style="verticalLabelPosition=bottom;verticalAlign=top;html=1;shape=offPageConnector;rounded=0;size=0.5;" parent="fdY3iPm0eYBTXGuh3AIi-183" vertex="1">
          <mxGeometry x="339" y="195" width="30" height="30" as="geometry" />
        </mxCell>
        <mxCell id="fdY3iPm0eYBTXGuh3AIi-208" value="" style="endArrow=classic;html=1;rounded=0;" parent="fdY3iPm0eYBTXGuh3AIi-183" edge="1">
          <mxGeometry width="50" height="50" relative="1" as="geometry">
            <mxPoint x="405.71" y="195" as="sourcePoint" />
            <mxPoint x="406.21" y="225" as="targetPoint" />
          </mxGeometry>
        </mxCell>
        <mxCell id="fdY3iPm0eYBTXGuh3AIi-209" value="" style="verticalLabelPosition=bottom;verticalAlign=top;html=1;shape=offPageConnector;rounded=0;size=0.5;" parent="fdY3iPm0eYBTXGuh3AIi-183" vertex="1">
          <mxGeometry x="391" y="165" width="30" height="30" as="geometry" />
        </mxCell>
        <mxCell id="fdY3iPm0eYBTXGuh3AIi-210" value="หน้าต่อไป" style="text;html=1;align=center;verticalAlign=middle;resizable=0;points=[];autosize=1;strokeColor=none;fillColor=none;fontFamily=Sarabun;fontSource=https://fonts.googleapis.com/css?family=Sarabun;" parent="fdY3iPm0eYBTXGuh3AIi-183" vertex="1">
          <mxGeometry x="345" y="220" width="70" height="30" as="geometry" />
        </mxCell>
        <mxCell id="fdY3iPm0eYBTXGuh3AIi-211" value="ก" style="text;html=1;align=center;verticalAlign=middle;resizable=0;points=[];autosize=1;strokeColor=none;fillColor=none;fontFamily=Sarabun;fontSource=https://fonts.googleapis.com/css?family=Sarabun;" parent="fdY3iPm0eYBTXGuh3AIi-183" vertex="1">
          <mxGeometry x="339" y="190" width="30" height="30" as="geometry" />
        </mxCell>
        <mxCell id="fdY3iPm0eYBTXGuh3AIi-212" value="ก" style="text;html=1;align=center;verticalAlign=middle;resizable=0;points=[];autosize=1;strokeColor=none;fillColor=none;fontFamily=Sarabun;fontSource=https://fonts.googleapis.com/css?family=Sarabun;" parent="fdY3iPm0eYBTXGuh3AIi-183" vertex="1">
          <mxGeometry x="391" y="160" width="30" height="30" as="geometry" />
        </mxCell>
        <mxCell id="fdY3iPm0eYBTXGuh3AIi-213" value="แสดงผล/รับค่า" style="shape=parallelogram;perimeter=parallelogramPerimeter;whiteSpace=wrap;html=1;fixedSize=1;fontFamily=Sarabun;fontSource=https://fonts.googleapis.com/css?family=Sarabun;" parent="fdY3iPm0eYBTXGuh3AIi-183" vertex="1">
          <mxGeometry x="450" y="210" width="120" height="30" as="geometry" />
        </mxCell>
        <mxCell id="fdY3iPm0eYBTXGuh3AIi-214" value="" style="endArrow=classic;html=1;rounded=0;" parent="fdY3iPm0eYBTXGuh3AIi-183" edge="1">
          <mxGeometry width="50" height="50" relative="1" as="geometry">
            <mxPoint x="509.71" y="180" as="sourcePoint" />
            <mxPoint x="510.21" y="210" as="targetPoint" />
          </mxGeometry>
        </mxCell>
        <mxCell id="fdY3iPm0eYBTXGuh3AIi-215" value="" style="endArrow=classic;html=1;rounded=0;" parent="fdY3iPm0eYBTXGuh3AIi-183" edge="1">
          <mxGeometry width="50" height="50" relative="1" as="geometry">
            <mxPoint x="509.71" y="240" as="sourcePoint" />
            <mxPoint x="510.21" y="270" as="targetPoint" />
          </mxGeometry>
        </mxCell>
        <mxCell id="fdY3iPm0eYBTXGuh3AIi-216" value="แก้ไขโจทย์ปัญหา" style="swimlane;fontFamily=Sarabun;fontSource=https://fonts.googleapis.com/css?family=Sarabun;" parent="1" vertex="1">
          <mxGeometry x="810" y="1290" width="1020" height="3030" as="geometry" />
        </mxCell>
        <mxCell id="fdY3iPm0eYBTXGuh3AIi-217" style="edgeStyle=orthogonalEdgeStyle;rounded=0;orthogonalLoop=1;jettySize=auto;html=1;entryX=0.5;entryY=0;entryDx=0;entryDy=0;" parent="fdY3iPm0eYBTXGuh3AIi-216" source="fdY3iPm0eYBTXGuh3AIi-218" target="fdY3iPm0eYBTXGuh3AIi-260" edge="1">
          <mxGeometry relative="1" as="geometry" />
        </mxCell>
        <mxCell id="fdY3iPm0eYBTXGuh3AIi-218" value="&lt;font style=&quot;font-size: 15px;&quot;&gt;เริ่มต้น&lt;/font&gt;" style="strokeWidth=1;html=1;shape=mxgraph.flowchart.terminator;whiteSpace=wrap;" parent="fdY3iPm0eYBTXGuh3AIi-216" vertex="1">
          <mxGeometry x="255" y="40" width="130" height="60" as="geometry" />
        </mxCell>
        <mxCell id="fdY3iPm0eYBTXGuh3AIi-219" value="" style="edgeStyle=orthogonalEdgeStyle;rounded=0;orthogonalLoop=1;jettySize=auto;html=1;" parent="fdY3iPm0eYBTXGuh3AIi-216" source="fdY3iPm0eYBTXGuh3AIi-276" target="fdY3iPm0eYBTXGuh3AIi-242" edge="1">
          <mxGeometry relative="1" as="geometry" />
        </mxCell>
        <mxCell id="fdY3iPm0eYBTXGuh3AIi-220" value="แสดงรายการสินค้าทั้งจำนวนและราคา" style="rounded=0;whiteSpace=wrap;html=1;" parent="fdY3iPm0eYBTXGuh3AIi-216" vertex="1">
          <mxGeometry x="229.25" y="300" width="180" height="60" as="geometry" />
        </mxCell>
        <mxCell id="fdY3iPm0eYBTXGuh3AIi-221" value="" style="edgeStyle=orthogonalEdgeStyle;rounded=0;orthogonalLoop=1;jettySize=auto;html=1;" parent="fdY3iPm0eYBTXGuh3AIi-216" source="fdY3iPm0eYBTXGuh3AIi-223" target="fdY3iPm0eYBTXGuh3AIi-226" edge="1">
          <mxGeometry relative="1" as="geometry" />
        </mxCell>
        <mxCell id="fdY3iPm0eYBTXGuh3AIi-222" value="" style="edgeStyle=orthogonalEdgeStyle;rounded=0;orthogonalLoop=1;jettySize=auto;html=1;" parent="fdY3iPm0eYBTXGuh3AIi-216" source="fdY3iPm0eYBTXGuh3AIi-223" target="fdY3iPm0eYBTXGuh3AIi-229" edge="1">
          <mxGeometry relative="1" as="geometry" />
        </mxCell>
        <mxCell id="fdY3iPm0eYBTXGuh3AIi-223" value="สินค้าประเภทนํ้า" style="rhombus;whiteSpace=wrap;html=1;" parent="fdY3iPm0eYBTXGuh3AIi-216" vertex="1">
          <mxGeometry x="260" y="530" width="120" height="110" as="geometry" />
        </mxCell>
        <mxCell id="fdY3iPm0eYBTXGuh3AIi-224" value="" style="edgeStyle=orthogonalEdgeStyle;rounded=0;orthogonalLoop=1;jettySize=auto;html=1;" parent="fdY3iPm0eYBTXGuh3AIi-216" source="fdY3iPm0eYBTXGuh3AIi-226" target="fdY3iPm0eYBTXGuh3AIi-236" edge="1">
          <mxGeometry relative="1" as="geometry" />
        </mxCell>
        <mxCell id="fdY3iPm0eYBTXGuh3AIi-225" style="edgeStyle=orthogonalEdgeStyle;rounded=0;orthogonalLoop=1;jettySize=auto;html=1;entryX=1;entryY=0.5;entryDx=0;entryDy=0;" parent="fdY3iPm0eYBTXGuh3AIi-216" source="fdY3iPm0eYBTXGuh3AIi-226" target="fdY3iPm0eYBTXGuh3AIi-276" edge="1">
          <mxGeometry relative="1" as="geometry">
            <Array as="points">
              <mxPoint x="520" y="400" />
            </Array>
          </mxGeometry>
        </mxCell>
        <mxCell id="fdY3iPm0eYBTXGuh3AIi-226" value="สินค้าประเภทขนม" style="rhombus;whiteSpace=wrap;html=1;" parent="fdY3iPm0eYBTXGuh3AIi-216" vertex="1">
          <mxGeometry x="460" y="530" width="120" height="110" as="geometry" />
        </mxCell>
        <mxCell id="fdY3iPm0eYBTXGuh3AIi-227" value="no" style="text;html=1;align=center;verticalAlign=middle;whiteSpace=wrap;rounded=0;" parent="fdY3iPm0eYBTXGuh3AIi-216" vertex="1">
          <mxGeometry x="385" y="560" width="60" height="30" as="geometry" />
        </mxCell>
        <mxCell id="fdY3iPm0eYBTXGuh3AIi-228" style="edgeStyle=orthogonalEdgeStyle;rounded=0;orthogonalLoop=1;jettySize=auto;html=1;entryX=0.5;entryY=0;entryDx=0;entryDy=0;" parent="fdY3iPm0eYBTXGuh3AIi-216" source="fdY3iPm0eYBTXGuh3AIi-229" target="fdY3iPm0eYBTXGuh3AIi-254" edge="1">
          <mxGeometry relative="1" as="geometry" />
        </mxCell>
        <mxCell id="fdY3iPm0eYBTXGuh3AIi-229" value="แสดงรายการสินค้าประเภทนํ้าและราคา" style="whiteSpace=wrap;html=1;" parent="fdY3iPm0eYBTXGuh3AIi-216" vertex="1">
          <mxGeometry x="260" y="680" width="120" height="60" as="geometry" />
        </mxCell>
        <mxCell id="fdY3iPm0eYBTXGuh3AIi-230" value="yes" style="text;html=1;align=center;verticalAlign=middle;whiteSpace=wrap;rounded=0;" parent="fdY3iPm0eYBTXGuh3AIi-216" vertex="1">
          <mxGeometry x="325" y="635" width="60" height="30" as="geometry" />
        </mxCell>
        <mxCell id="fdY3iPm0eYBTXGuh3AIi-231" style="edgeStyle=orthogonalEdgeStyle;rounded=0;orthogonalLoop=1;jettySize=auto;html=1;entryX=0;entryY=0.5;entryDx=0;entryDy=0;exitX=0;exitY=0.5;exitDx=0;exitDy=0;" parent="fdY3iPm0eYBTXGuh3AIi-216" source="fdY3iPm0eYBTXGuh3AIi-233" target="fdY3iPm0eYBTXGuh3AIi-276" edge="1">
          <mxGeometry relative="1" as="geometry">
            <Array as="points">
              <mxPoint x="50" y="1700" />
              <mxPoint x="50" y="400" />
            </Array>
          </mxGeometry>
        </mxCell>
        <mxCell id="fdY3iPm0eYBTXGuh3AIi-232" style="edgeStyle=orthogonalEdgeStyle;rounded=0;orthogonalLoop=1;jettySize=auto;html=1;entryX=0;entryY=0.5;entryDx=0;entryDy=0;exitX=0.5;exitY=1;exitDx=0;exitDy=0;" parent="fdY3iPm0eYBTXGuh3AIi-216" source="fdY3iPm0eYBTXGuh3AIi-233" target="fdY3iPm0eYBTXGuh3AIi-245" edge="1">
          <mxGeometry relative="1" as="geometry" />
        </mxCell>
        <mxCell id="fdY3iPm0eYBTXGuh3AIi-233" value="เลือกสินค้าประเภทนํ้าที่ต้องการ" style="rhombus;whiteSpace=wrap;html=1;" parent="fdY3iPm0eYBTXGuh3AIi-216" vertex="1">
          <mxGeometry x="261.5" y="1640" width="115" height="120" as="geometry" />
        </mxCell>
        <mxCell id="fdY3iPm0eYBTXGuh3AIi-234" value="no" style="text;html=1;align=center;verticalAlign=middle;whiteSpace=wrap;rounded=0;" parent="fdY3iPm0eYBTXGuh3AIi-216" vertex="1">
          <mxGeometry x="220" y="1660" width="60" height="30" as="geometry" />
        </mxCell>
        <mxCell id="fdY3iPm0eYBTXGuh3AIi-235" value="" style="edgeStyle=orthogonalEdgeStyle;rounded=0;orthogonalLoop=1;jettySize=auto;html=1;" parent="fdY3iPm0eYBTXGuh3AIi-216" source="fdY3iPm0eYBTXGuh3AIi-236" target="fdY3iPm0eYBTXGuh3AIi-256" edge="1">
          <mxGeometry relative="1" as="geometry" />
        </mxCell>
        <mxCell id="fdY3iPm0eYBTXGuh3AIi-236" value="แสดงรายการสินค้าประเภทขนมและราคา" style="whiteSpace=wrap;html=1;" parent="fdY3iPm0eYBTXGuh3AIi-216" vertex="1">
          <mxGeometry x="460" y="680" width="120" height="60" as="geometry" />
        </mxCell>
        <mxCell id="fdY3iPm0eYBTXGuh3AIi-237" style="edgeStyle=orthogonalEdgeStyle;rounded=0;orthogonalLoop=1;jettySize=auto;html=1;entryX=1;entryY=0.5;entryDx=0;entryDy=0;" parent="fdY3iPm0eYBTXGuh3AIi-216" source="fdY3iPm0eYBTXGuh3AIi-239" target="fdY3iPm0eYBTXGuh3AIi-242" edge="1">
          <mxGeometry relative="1" as="geometry">
            <Array as="points">
              <mxPoint x="930" y="1700" />
              <mxPoint x="930" y="470" />
            </Array>
          </mxGeometry>
        </mxCell>
        <mxCell id="fdY3iPm0eYBTXGuh3AIi-238" style="edgeStyle=orthogonalEdgeStyle;rounded=0;orthogonalLoop=1;jettySize=auto;html=1;entryX=1;entryY=0.5;entryDx=0;entryDy=0;" parent="fdY3iPm0eYBTXGuh3AIi-216" source="fdY3iPm0eYBTXGuh3AIi-239" target="fdY3iPm0eYBTXGuh3AIi-245" edge="1">
          <mxGeometry relative="1" as="geometry">
            <Array as="points">
              <mxPoint x="520" y="1780" />
            </Array>
          </mxGeometry>
        </mxCell>
        <mxCell id="fdY3iPm0eYBTXGuh3AIi-239" value="เลือกสินค้าขนมที่ต้องการ" style="rhombus;whiteSpace=wrap;html=1;" parent="fdY3iPm0eYBTXGuh3AIi-216" vertex="1">
          <mxGeometry x="464.99" y="1650" width="110" height="100" as="geometry" />
        </mxCell>
        <mxCell id="fdY3iPm0eYBTXGuh3AIi-240" value="yes" style="text;html=1;align=center;verticalAlign=middle;whiteSpace=wrap;rounded=0;" parent="fdY3iPm0eYBTXGuh3AIi-216" vertex="1">
          <mxGeometry x="520" y="640" width="60" height="30" as="geometry" />
        </mxCell>
        <mxCell id="fdY3iPm0eYBTXGuh3AIi-241" style="edgeStyle=orthogonalEdgeStyle;rounded=0;orthogonalLoop=1;jettySize=auto;html=1;entryX=0.5;entryY=0;entryDx=0;entryDy=0;" parent="fdY3iPm0eYBTXGuh3AIi-216" source="fdY3iPm0eYBTXGuh3AIi-242" target="fdY3iPm0eYBTXGuh3AIi-223" edge="1">
          <mxGeometry relative="1" as="geometry" />
        </mxCell>
        <mxCell id="fdY3iPm0eYBTXGuh3AIi-242" value="เลือกประเภทสินค้า" style="rounded=0;whiteSpace=wrap;html=1;" parent="fdY3iPm0eYBTXGuh3AIi-216" vertex="1">
          <mxGeometry x="260" y="440" width="120" height="60" as="geometry" />
        </mxCell>
        <mxCell id="fdY3iPm0eYBTXGuh3AIi-243" value="no" style="text;html=1;align=center;verticalAlign=middle;whiteSpace=wrap;rounded=0;" parent="fdY3iPm0eYBTXGuh3AIi-216" vertex="1">
          <mxGeometry x="527.88" y="1630" width="60" height="30" as="geometry" />
        </mxCell>
        <mxCell id="fdY3iPm0eYBTXGuh3AIi-244" value="" style="edgeStyle=orthogonalEdgeStyle;rounded=0;orthogonalLoop=1;jettySize=auto;html=1;" parent="fdY3iPm0eYBTXGuh3AIi-216" source="fdY3iPm0eYBTXGuh3AIi-245" target="fdY3iPm0eYBTXGuh3AIi-248" edge="1">
          <mxGeometry relative="1" as="geometry" />
        </mxCell>
        <mxCell id="fdY3iPm0eYBTXGuh3AIi-245" value="" style="ellipse;whiteSpace=wrap;html=1;aspect=fixed;" parent="fdY3iPm0eYBTXGuh3AIi-216" vertex="1">
          <mxGeometry x="397.5" y="1760" width="40" height="40" as="geometry" />
        </mxCell>
        <mxCell id="fdY3iPm0eYBTXGuh3AIi-246" style="edgeStyle=orthogonalEdgeStyle;rounded=0;orthogonalLoop=1;jettySize=auto;html=1;entryX=0;entryY=0.5;entryDx=0;entryDy=0;" parent="fdY3iPm0eYBTXGuh3AIi-216" source="fdY3iPm0eYBTXGuh3AIi-248" target="fdY3iPm0eYBTXGuh3AIi-220" edge="1">
          <mxGeometry relative="1" as="geometry">
            <Array as="points">
              <mxPoint x="20" y="1875" />
              <mxPoint x="20" y="330" />
            </Array>
          </mxGeometry>
        </mxCell>
        <mxCell id="fdY3iPm0eYBTXGuh3AIi-247" value="" style="edgeStyle=orthogonalEdgeStyle;rounded=0;orthogonalLoop=1;jettySize=auto;html=1;" parent="fdY3iPm0eYBTXGuh3AIi-216" source="fdY3iPm0eYBTXGuh3AIi-248" target="fdY3iPm0eYBTXGuh3AIi-264" edge="1">
          <mxGeometry relative="1" as="geometry" />
        </mxCell>
        <mxCell id="fdY3iPm0eYBTXGuh3AIi-248" value="ต้องการเลือกสินค้าเพิ่มหรือไม่" style="rhombus;whiteSpace=wrap;html=1;" parent="fdY3iPm0eYBTXGuh3AIi-216" vertex="1">
          <mxGeometry x="335" y="1820" width="167.5" height="110" as="geometry" />
        </mxCell>
        <mxCell id="fdY3iPm0eYBTXGuh3AIi-249" value="yes" style="text;html=1;align=center;verticalAlign=middle;whiteSpace=wrap;rounded=0;" parent="fdY3iPm0eYBTXGuh3AIi-216" vertex="1">
          <mxGeometry x="312.5" y="1750" width="60" height="30" as="geometry" />
        </mxCell>
        <mxCell id="fdY3iPm0eYBTXGuh3AIi-250" value="yes" style="text;html=1;align=center;verticalAlign=middle;whiteSpace=wrap;rounded=0;" parent="fdY3iPm0eYBTXGuh3AIi-216" vertex="1">
          <mxGeometry x="452.5" y="1750" width="60" height="30" as="geometry" />
        </mxCell>
        <mxCell id="fdY3iPm0eYBTXGuh3AIi-251" value="yes" style="text;html=1;align=center;verticalAlign=middle;whiteSpace=wrap;rounded=0;" parent="fdY3iPm0eYBTXGuh3AIi-216" vertex="1">
          <mxGeometry x="299" y="1830" width="60" height="30" as="geometry" />
        </mxCell>
        <mxCell id="fdY3iPm0eYBTXGuh3AIi-252" value="no" style="text;html=1;align=center;verticalAlign=middle;whiteSpace=wrap;rounded=0;" parent="fdY3iPm0eYBTXGuh3AIi-216" vertex="1">
          <mxGeometry x="420" y="1910" width="60" height="30" as="geometry" />
        </mxCell>
        <mxCell id="fdY3iPm0eYBTXGuh3AIi-253" style="edgeStyle=orthogonalEdgeStyle;rounded=0;orthogonalLoop=1;jettySize=auto;html=1;exitX=0.5;exitY=1;exitDx=0;exitDy=0;entryX=0.5;entryY=0;entryDx=0;entryDy=0;" parent="fdY3iPm0eYBTXGuh3AIi-216" source="fdY3iPm0eYBTXGuh3AIi-320" target="fdY3iPm0eYBTXGuh3AIi-233" edge="1">
          <mxGeometry relative="1" as="geometry" />
        </mxCell>
        <mxCell id="fdY3iPm0eYBTXGuh3AIi-254" value="&lt;div&gt;&lt;span style=&quot;white-space: pre;&quot;&gt;&#x9;&lt;/span&gt;- โค้ก กระป๋องละ 10 บาท&lt;span style=&quot;white-space:pre&quot;&gt;&#x9;&#x9;&lt;/span&gt;&lt;/div&gt;&lt;div&gt;&lt;span style=&quot;white-space: pre;&quot;&gt;&#x9;&lt;/span&gt;- น้ำเขียว กระป๋องละ 12 บาท&lt;span style=&quot;white-space:pre&quot;&gt;&#x9;&#x9;&lt;/span&gt;&lt;/div&gt;&lt;div&gt;&lt;span style=&quot;background-color: transparent; color: light-dark(rgb(0, 0, 0), rgb(255, 255, 255));&quot;&gt;&lt;span style=&quot;white-space: pre;&quot;&gt;&#x9;&lt;/span&gt;- อเมริกาโน่ 30 บาท&lt;/span&gt;&lt;span style=&quot;background-color: transparent; color: light-dark(rgb(0, 0, 0), rgb(255, 255, 255)); white-space: pre;&quot;&gt;&#x9;&lt;/span&gt;&lt;/div&gt;&lt;div&gt;&lt;span style=&quot;background-color: transparent; color: light-dark(rgb(0, 0, 0), rgb(255, 255, 255));&quot;&gt;&lt;span style=&quot;white-space: pre;&quot;&gt;&#x9;&lt;/span&gt;- ลาเต้ หวานเจี๊ยบ 35 บาท&lt;/span&gt;&lt;/div&gt;" style="whiteSpace=wrap;html=1;align=left;" parent="fdY3iPm0eYBTXGuh3AIi-216" vertex="1">
          <mxGeometry x="210" y="760" width="219.14" height="80" as="geometry" />
        </mxCell>
        <mxCell id="fdY3iPm0eYBTXGuh3AIi-255" value="" style="edgeStyle=orthogonalEdgeStyle;rounded=0;orthogonalLoop=1;jettySize=auto;html=1;exitX=0.5;exitY=1;exitDx=0;exitDy=0;" parent="fdY3iPm0eYBTXGuh3AIi-216" source="fdY3iPm0eYBTXGuh3AIi-318" target="fdY3iPm0eYBTXGuh3AIi-239" edge="1">
          <mxGeometry relative="1" as="geometry" />
        </mxCell>
        <mxCell id="fdY3iPm0eYBTXGuh3AIi-256" value="&lt;div&gt;- เมล็ดทานตะวัน 13 บาท&lt;/div&gt;&lt;div&gt;- ถั่วแปบ 20 บาท&lt;/div&gt;&lt;div style=&quot;&quot;&gt;- จิ้นส้มหมก 15 บาท&lt;/div&gt;" style="whiteSpace=wrap;html=1;align=left;" parent="fdY3iPm0eYBTXGuh3AIi-216" vertex="1">
          <mxGeometry x="452.13" y="760" width="135.75" height="80" as="geometry" />
        </mxCell>
        <mxCell id="fdY3iPm0eYBTXGuh3AIi-257" value="" style="edgeStyle=orthogonalEdgeStyle;rounded=0;orthogonalLoop=1;jettySize=auto;html=1;" parent="fdY3iPm0eYBTXGuh3AIi-216" source="fdY3iPm0eYBTXGuh3AIi-258" target="fdY3iPm0eYBTXGuh3AIi-220" edge="1">
          <mxGeometry relative="1" as="geometry" />
        </mxCell>
        <mxCell id="fdY3iPm0eYBTXGuh3AIi-258" value="ตรวจสอบสินค้าภายในเครื่อง" style="shape=process;whiteSpace=wrap;html=1;backgroundOutline=1;" parent="fdY3iPm0eYBTXGuh3AIi-216" vertex="1">
          <mxGeometry x="259.25" y="220" width="120" height="60" as="geometry" />
        </mxCell>
        <mxCell id="fdY3iPm0eYBTXGuh3AIi-259" style="edgeStyle=orthogonalEdgeStyle;rounded=0;orthogonalLoop=1;jettySize=auto;html=1;entryX=0.5;entryY=0;entryDx=0;entryDy=0;" parent="fdY3iPm0eYBTXGuh3AIi-216" source="fdY3iPm0eYBTXGuh3AIi-260" target="fdY3iPm0eYBTXGuh3AIi-258" edge="1">
          <mxGeometry relative="1" as="geometry" />
        </mxCell>
        <mxCell id="fdY3iPm0eYBTXGuh3AIi-260" value="เมื่อลูกค้ามาใช้็งาน" style="rounded=0;whiteSpace=wrap;html=1;" parent="fdY3iPm0eYBTXGuh3AIi-216" vertex="1">
          <mxGeometry x="259.25" y="130" width="120" height="60" as="geometry" />
        </mxCell>
        <mxCell id="fdY3iPm0eYBTXGuh3AIi-263" value="" style="edgeStyle=orthogonalEdgeStyle;rounded=0;orthogonalLoop=1;jettySize=auto;html=1;" parent="fdY3iPm0eYBTXGuh3AIi-216" source="fdY3iPm0eYBTXGuh3AIi-264" target="fdY3iPm0eYBTXGuh3AIi-268" edge="1">
          <mxGeometry relative="1" as="geometry" />
        </mxCell>
        <mxCell id="fdY3iPm0eYBTXGuh3AIi-264" value="แสดงรายการทั้งหมดที่ลูกค้าเลือก" style="whiteSpace=wrap;html=1;" parent="fdY3iPm0eYBTXGuh3AIi-216" vertex="1">
          <mxGeometry x="336.25" y="1970" width="165" height="60" as="geometry" />
        </mxCell>
        <mxCell id="fdY3iPm0eYBTXGuh3AIi-265" value="" style="edgeStyle=orthogonalEdgeStyle;rounded=0;orthogonalLoop=1;jettySize=auto;html=1;" parent="fdY3iPm0eYBTXGuh3AIi-216" source="fdY3iPm0eYBTXGuh3AIi-266" target="fdY3iPm0eYBTXGuh3AIi-271" edge="1">
          <mxGeometry relative="1" as="geometry" />
        </mxCell>
        <mxCell id="fdY3iPm0eYBTXGuh3AIi-266" value="เลือกประเภทการชำระเงิน" style="shape=process;whiteSpace=wrap;html=1;backgroundOutline=1;" parent="fdY3iPm0eYBTXGuh3AIi-216" vertex="1">
          <mxGeometry x="324.62" y="2370" width="176.25" height="70" as="geometry" />
        </mxCell>
        <mxCell id="fdY3iPm0eYBTXGuh3AIi-268" value="รวมราคาทั้งหมดของสินค้าที่เลือก&amp;nbsp;" style="shape=parallelogram;perimeter=parallelogramPerimeter;whiteSpace=wrap;html=1;fixedSize=1;" parent="fdY3iPm0eYBTXGuh3AIi-216" vertex="1">
          <mxGeometry x="325.75" y="2100" width="186.25" height="60" as="geometry" />
        </mxCell>
        <mxCell id="fdY3iPm0eYBTXGuh3AIi-269" value="&lt;span style=&quot;font-size: 15px;&quot;&gt;สิ้นสุด&lt;/span&gt;" style="strokeWidth=1;html=1;shape=mxgraph.flowchart.terminator;whiteSpace=wrap;" parent="fdY3iPm0eYBTXGuh3AIi-216" vertex="1">
          <mxGeometry x="349.5000000000002" y="2880" width="130" height="60" as="geometry" />
        </mxCell>
        <mxCell id="fdY3iPm0eYBTXGuh3AIi-270" style="edgeStyle=orthogonalEdgeStyle;rounded=0;orthogonalLoop=1;jettySize=auto;html=1;exitX=0.5;exitY=1;exitDx=0;exitDy=0;entryX=0.5;entryY=0;entryDx=0;entryDy=0;" parent="fdY3iPm0eYBTXGuh3AIi-216" source="fdY3iPm0eYBTXGuh3AIi-271" target="fdY3iPm0eYBTXGuh3AIi-272" edge="1">
          <mxGeometry relative="1" as="geometry" />
        </mxCell>
        <mxCell id="fdY3iPm0eYBTXGuh3AIi-271" value="&lt;span style=&quot;font-size: 12px;&quot;&gt;ชำระเงินเสร็จสิ้น&lt;/span&gt;" style="rounded=0;whiteSpace=wrap;html=1;" parent="fdY3iPm0eYBTXGuh3AIi-216" vertex="1">
          <mxGeometry x="353.5000000000002" y="2520" width="120" height="60" as="geometry" />
        </mxCell>
        <mxCell id="siC57HpYKDQkwJZfV9jp-27" style="edgeStyle=orthogonalEdgeStyle;rounded=0;orthogonalLoop=1;jettySize=auto;html=1;entryX=0.5;entryY=0;entryDx=0;entryDy=0;" edge="1" parent="fdY3iPm0eYBTXGuh3AIi-216" source="fdY3iPm0eYBTXGuh3AIi-272" target="siC57HpYKDQkwJZfV9jp-26">
          <mxGeometry relative="1" as="geometry" />
        </mxCell>
        <mxCell id="fdY3iPm0eYBTXGuh3AIi-272" value="มอบสินค้าให้กับลูกค้า" style="rounded=0;whiteSpace=wrap;html=1;" parent="fdY3iPm0eYBTXGuh3AIi-216" vertex="1">
          <mxGeometry x="354.0000000000002" y="2630" width="120" height="60" as="geometry" />
        </mxCell>
        <mxCell id="fdY3iPm0eYBTXGuh3AIi-274" value="no" style="text;html=1;align=center;verticalAlign=middle;whiteSpace=wrap;rounded=0;" parent="fdY3iPm0eYBTXGuh3AIi-216" vertex="1">
          <mxGeometry x="527.87" y="510" width="60" height="30" as="geometry" />
        </mxCell>
        <mxCell id="fdY3iPm0eYBTXGuh3AIi-275" value="" style="edgeStyle=orthogonalEdgeStyle;rounded=0;orthogonalLoop=1;jettySize=auto;html=1;" parent="fdY3iPm0eYBTXGuh3AIi-216" source="fdY3iPm0eYBTXGuh3AIi-220" target="fdY3iPm0eYBTXGuh3AIi-276" edge="1">
          <mxGeometry relative="1" as="geometry">
            <mxPoint x="-401" y="980" as="sourcePoint" />
            <mxPoint x="-400" y="1060" as="targetPoint" />
          </mxGeometry>
        </mxCell>
        <mxCell id="fdY3iPm0eYBTXGuh3AIi-276" value="" style="ellipse;whiteSpace=wrap;html=1;aspect=fixed;" parent="fdY3iPm0eYBTXGuh3AIi-216" vertex="1">
          <mxGeometry x="299" y="380" width="40" height="40" as="geometry" />
        </mxCell>
        <mxCell id="fdY3iPm0eYBTXGuh3AIi-277" value="" style="edgeStyle=orthogonalEdgeStyle;rounded=0;orthogonalLoop=1;jettySize=auto;html=1;exitX=0.5;exitY=1;exitDx=0;exitDy=0;entryX=0.5;entryY=0;entryDx=0;entryDy=0;" parent="fdY3iPm0eYBTXGuh3AIi-216" source="fdY3iPm0eYBTXGuh3AIi-312" target="fdY3iPm0eYBTXGuh3AIi-279" edge="1">
          <mxGeometry relative="1" as="geometry">
            <mxPoint x="-400" y="1500" as="sourcePoint" />
            <mxPoint x="-401" y="1970" as="targetPoint" />
          </mxGeometry>
        </mxCell>
        <mxCell id="fdY3iPm0eYBTXGuh3AIi-278" value="" style="edgeStyle=orthogonalEdgeStyle;rounded=0;orthogonalLoop=1;jettySize=auto;html=1;" parent="fdY3iPm0eYBTXGuh3AIi-216" source="fdY3iPm0eYBTXGuh3AIi-279" target="fdY3iPm0eYBTXGuh3AIi-300" edge="1">
          <mxGeometry relative="1" as="geometry" />
        </mxCell>
        <mxCell id="fdY3iPm0eYBTXGuh3AIi-279" value="โค้กกระป๋องละ&lt;span style=&quot;text-align: left;&quot;&gt;&amp;nbsp;10 บาท&lt;/span&gt;" style="rhombus;whiteSpace=wrap;html=1;" parent="fdY3iPm0eYBTXGuh3AIi-216" vertex="1">
          <mxGeometry x="260" y="950" width="117.49" height="103" as="geometry" />
        </mxCell>
        <mxCell id="fdY3iPm0eYBTXGuh3AIi-280" value="" style="edgeStyle=orthogonalEdgeStyle;rounded=0;orthogonalLoop=1;jettySize=auto;html=1;exitX=0.5;exitY=1;exitDx=0;exitDy=0;entryX=0.5;entryY=0;entryDx=0;entryDy=0;" parent="fdY3iPm0eYBTXGuh3AIi-216" source="fdY3iPm0eYBTXGuh3AIi-279" target="fdY3iPm0eYBTXGuh3AIi-282" edge="1">
          <mxGeometry relative="1" as="geometry">
            <mxPoint x="-400" y="1770" as="sourcePoint" />
            <mxPoint x="-401" y="2060" as="targetPoint" />
          </mxGeometry>
        </mxCell>
        <mxCell id="fdY3iPm0eYBTXGuh3AIi-281" value="" style="edgeStyle=orthogonalEdgeStyle;rounded=0;orthogonalLoop=1;jettySize=auto;html=1;" parent="fdY3iPm0eYBTXGuh3AIi-216" source="fdY3iPm0eYBTXGuh3AIi-282" target="fdY3iPm0eYBTXGuh3AIi-302" edge="1">
          <mxGeometry relative="1" as="geometry" />
        </mxCell>
        <mxCell id="fdY3iPm0eYBTXGuh3AIi-282" value="&lt;span style=&quot;text-align: left;&quot;&gt;น้ำเขียวกระป๋องละ 12 บาท&lt;/span&gt;&lt;span style=&quot;text-align: left; white-space: pre;&quot;&gt;&#x9;&lt;/span&gt;" style="rhombus;whiteSpace=wrap;html=1;" parent="fdY3iPm0eYBTXGuh3AIi-216" vertex="1">
          <mxGeometry x="257.08" y="1090" width="124.99" height="100" as="geometry" />
        </mxCell>
        <mxCell id="fdY3iPm0eYBTXGuh3AIi-283" value="" style="edgeStyle=orthogonalEdgeStyle;rounded=0;orthogonalLoop=1;jettySize=auto;html=1;exitX=0.5;exitY=1;exitDx=0;exitDy=0;entryX=0.5;entryY=0;entryDx=0;entryDy=0;" parent="fdY3iPm0eYBTXGuh3AIi-216" source="fdY3iPm0eYBTXGuh3AIi-282" target="fdY3iPm0eYBTXGuh3AIi-285" edge="1">
          <mxGeometry relative="1" as="geometry">
            <mxPoint x="-391" y="1840" as="sourcePoint" />
            <mxPoint x="-391" y="2050" as="targetPoint" />
          </mxGeometry>
        </mxCell>
        <mxCell id="fdY3iPm0eYBTXGuh3AIi-284" value="" style="edgeStyle=orthogonalEdgeStyle;rounded=0;orthogonalLoop=1;jettySize=auto;html=1;" parent="fdY3iPm0eYBTXGuh3AIi-216" source="fdY3iPm0eYBTXGuh3AIi-285" target="fdY3iPm0eYBTXGuh3AIi-304" edge="1">
          <mxGeometry relative="1" as="geometry" />
        </mxCell>
        <mxCell id="fdY3iPm0eYBTXGuh3AIi-285" value="&lt;div style=&quot;text-align: left;&quot;&gt;&lt;div&gt;&lt;span style=&quot;background-color: transparent; color: light-dark(rgb(0, 0, 0), rgb(255, 255, 255));&quot;&gt;อเมริกาโน่ 30 บาท&lt;/span&gt;&lt;span style=&quot;background-color: transparent; color: light-dark(rgb(0, 0, 0), rgb(255, 255, 255)); white-space: pre;&quot;&gt;&#x9;&lt;/span&gt;&lt;/div&gt;&lt;/div&gt;" style="rhombus;whiteSpace=wrap;html=1;" parent="fdY3iPm0eYBTXGuh3AIi-216" vertex="1">
          <mxGeometry x="257.08" y="1220" width="126" height="110" as="geometry" />
        </mxCell>
        <mxCell id="fdY3iPm0eYBTXGuh3AIi-286" value="" style="edgeStyle=orthogonalEdgeStyle;rounded=0;orthogonalLoop=1;jettySize=auto;html=1;exitX=0.5;exitY=1;exitDx=0;exitDy=0;entryX=0.5;entryY=0;entryDx=0;entryDy=0;" parent="fdY3iPm0eYBTXGuh3AIi-216" source="fdY3iPm0eYBTXGuh3AIi-285" target="fdY3iPm0eYBTXGuh3AIi-288" edge="1">
          <mxGeometry relative="1" as="geometry">
            <mxPoint x="-390" y="1930" as="sourcePoint" />
            <mxPoint x="-391" y="2090" as="targetPoint" />
          </mxGeometry>
        </mxCell>
        <mxCell id="fdY3iPm0eYBTXGuh3AIi-287" value="" style="edgeStyle=orthogonalEdgeStyle;rounded=0;orthogonalLoop=1;jettySize=auto;html=1;" parent="fdY3iPm0eYBTXGuh3AIi-216" source="fdY3iPm0eYBTXGuh3AIi-288" target="fdY3iPm0eYBTXGuh3AIi-306" edge="1">
          <mxGeometry relative="1" as="geometry" />
        </mxCell>
        <mxCell id="fdY3iPm0eYBTXGuh3AIi-288" value="&lt;span style=&quot;text-align: left;&quot;&gt;ลาเต้หวานเจี๊ยบ 35 บาท&lt;/span&gt;" style="rhombus;whiteSpace=wrap;html=1;" parent="fdY3iPm0eYBTXGuh3AIi-216" vertex="1">
          <mxGeometry x="254" y="1350" width="130" height="120" as="geometry" />
        </mxCell>
        <mxCell id="fdY3iPm0eYBTXGuh3AIi-289" value="" style="edgeStyle=orthogonalEdgeStyle;rounded=0;orthogonalLoop=1;jettySize=auto;html=1;" parent="fdY3iPm0eYBTXGuh3AIi-216" source="fdY3iPm0eYBTXGuh3AIi-314" target="fdY3iPm0eYBTXGuh3AIi-291" edge="1">
          <mxGeometry relative="1" as="geometry">
            <mxPoint x="-190" y="1450" as="sourcePoint" />
            <mxPoint x="-190" y="1970" as="targetPoint" />
          </mxGeometry>
        </mxCell>
        <mxCell id="fdY3iPm0eYBTXGuh3AIi-290" value="" style="edgeStyle=orthogonalEdgeStyle;rounded=0;orthogonalLoop=1;jettySize=auto;html=1;" parent="fdY3iPm0eYBTXGuh3AIi-216" source="fdY3iPm0eYBTXGuh3AIi-291" target="fdY3iPm0eYBTXGuh3AIi-308" edge="1">
          <mxGeometry relative="1" as="geometry" />
        </mxCell>
        <mxCell id="fdY3iPm0eYBTXGuh3AIi-291" value="&lt;span style=&quot;text-align: left;&quot;&gt;เมล็ดทานตะวัน 13 บาท&lt;/span&gt;" style="rhombus;whiteSpace=wrap;html=1;" parent="fdY3iPm0eYBTXGuh3AIi-216" vertex="1">
          <mxGeometry x="455" y="950" width="130" height="120" as="geometry" />
        </mxCell>
        <mxCell id="fdY3iPm0eYBTXGuh3AIi-292" value="" style="edgeStyle=orthogonalEdgeStyle;rounded=0;orthogonalLoop=1;jettySize=auto;html=1;" parent="fdY3iPm0eYBTXGuh3AIi-216" source="fdY3iPm0eYBTXGuh3AIi-291" target="fdY3iPm0eYBTXGuh3AIi-294" edge="1">
          <mxGeometry relative="1" as="geometry">
            <mxPoint x="-190" y="1680" as="sourcePoint" />
            <mxPoint x="-190" y="2060" as="targetPoint" />
          </mxGeometry>
        </mxCell>
        <mxCell id="fdY3iPm0eYBTXGuh3AIi-293" value="" style="edgeStyle=orthogonalEdgeStyle;rounded=0;orthogonalLoop=1;jettySize=auto;html=1;" parent="fdY3iPm0eYBTXGuh3AIi-216" source="fdY3iPm0eYBTXGuh3AIi-294" target="fdY3iPm0eYBTXGuh3AIi-310" edge="1">
          <mxGeometry relative="1" as="geometry" />
        </mxCell>
        <mxCell id="fdY3iPm0eYBTXGuh3AIi-294" value="&lt;span style=&quot;text-align: left;&quot;&gt;ถั่วแปบ 20 บาท&lt;/span&gt;" style="rhombus;whiteSpace=wrap;html=1;" parent="fdY3iPm0eYBTXGuh3AIi-216" vertex="1">
          <mxGeometry x="455" y="1120" width="130" height="120" as="geometry" />
        </mxCell>
        <mxCell id="fdY3iPm0eYBTXGuh3AIi-295" value="" style="edgeStyle=orthogonalEdgeStyle;rounded=0;orthogonalLoop=1;jettySize=auto;html=1;" parent="fdY3iPm0eYBTXGuh3AIi-216" source="fdY3iPm0eYBTXGuh3AIi-294" target="fdY3iPm0eYBTXGuh3AIi-298" edge="1">
          <mxGeometry relative="1" as="geometry">
            <mxPoint x="-190" y="1860" as="sourcePoint" />
            <mxPoint x="-190" y="2060" as="targetPoint" />
          </mxGeometry>
        </mxCell>
        <mxCell id="fdY3iPm0eYBTXGuh3AIi-296" value="" style="edgeStyle=orthogonalEdgeStyle;rounded=0;orthogonalLoop=1;jettySize=auto;html=1;" parent="fdY3iPm0eYBTXGuh3AIi-216" source="fdY3iPm0eYBTXGuh3AIi-298" target="fdY3iPm0eYBTXGuh3AIi-311" edge="1">
          <mxGeometry relative="1" as="geometry" />
        </mxCell>
        <mxCell id="fdY3iPm0eYBTXGuh3AIi-297" style="edgeStyle=orthogonalEdgeStyle;rounded=0;orthogonalLoop=1;jettySize=auto;html=1;" parent="fdY3iPm0eYBTXGuh3AIi-216" source="fdY3iPm0eYBTXGuh3AIi-298" target="fdY3iPm0eYBTXGuh3AIi-318" edge="1">
          <mxGeometry relative="1" as="geometry" />
        </mxCell>
        <mxCell id="fdY3iPm0eYBTXGuh3AIi-298" value="&lt;span style=&quot;text-align: left;&quot;&gt;จิ้นส้มหมก 15 บาท&lt;/span&gt;" style="rhombus;whiteSpace=wrap;html=1;" parent="fdY3iPm0eYBTXGuh3AIi-216" vertex="1">
          <mxGeometry x="454.99" y="1280" width="130" height="120" as="geometry" />
        </mxCell>
        <mxCell id="fdY3iPm0eYBTXGuh3AIi-299" value="" style="edgeStyle=orthogonalEdgeStyle;rounded=0;orthogonalLoop=1;jettySize=auto;html=1;" parent="fdY3iPm0eYBTXGuh3AIi-216" source="fdY3iPm0eYBTXGuh3AIi-300" target="fdY3iPm0eYBTXGuh3AIi-302" edge="1">
          <mxGeometry relative="1" as="geometry" />
        </mxCell>
        <mxCell id="fdY3iPm0eYBTXGuh3AIi-300" value="&amp;gt;1" style="rhombus;whiteSpace=wrap;html=1;" parent="fdY3iPm0eYBTXGuh3AIi-216" vertex="1">
          <mxGeometry x="150" y="961.5" width="80" height="80" as="geometry" />
        </mxCell>
        <mxCell id="fdY3iPm0eYBTXGuh3AIi-301" value="" style="edgeStyle=orthogonalEdgeStyle;rounded=0;orthogonalLoop=1;jettySize=auto;html=1;" parent="fdY3iPm0eYBTXGuh3AIi-216" source="fdY3iPm0eYBTXGuh3AIi-302" target="fdY3iPm0eYBTXGuh3AIi-304" edge="1">
          <mxGeometry relative="1" as="geometry" />
        </mxCell>
        <mxCell id="fdY3iPm0eYBTXGuh3AIi-302" value="&amp;gt;1" style="rhombus;whiteSpace=wrap;html=1;" parent="fdY3iPm0eYBTXGuh3AIi-216" vertex="1">
          <mxGeometry x="149.25" y="1100" width="80" height="80" as="geometry" />
        </mxCell>
        <mxCell id="fdY3iPm0eYBTXGuh3AIi-303" value="" style="edgeStyle=orthogonalEdgeStyle;rounded=0;orthogonalLoop=1;jettySize=auto;html=1;" parent="fdY3iPm0eYBTXGuh3AIi-216" source="fdY3iPm0eYBTXGuh3AIi-304" target="fdY3iPm0eYBTXGuh3AIi-306" edge="1">
          <mxGeometry relative="1" as="geometry" />
        </mxCell>
        <mxCell id="fdY3iPm0eYBTXGuh3AIi-304" value="&amp;gt;1" style="rhombus;whiteSpace=wrap;html=1;" parent="fdY3iPm0eYBTXGuh3AIi-216" vertex="1">
          <mxGeometry x="149.25" y="1235" width="80" height="80" as="geometry" />
        </mxCell>
        <mxCell id="fdY3iPm0eYBTXGuh3AIi-305" style="edgeStyle=orthogonalEdgeStyle;rounded=0;orthogonalLoop=1;jettySize=auto;html=1;entryX=0;entryY=0.5;entryDx=0;entryDy=0;" parent="fdY3iPm0eYBTXGuh3AIi-216" source="fdY3iPm0eYBTXGuh3AIi-306" target="fdY3iPm0eYBTXGuh3AIi-320" edge="1">
          <mxGeometry relative="1" as="geometry">
            <Array as="points">
              <mxPoint x="189" y="1570" />
            </Array>
          </mxGeometry>
        </mxCell>
        <mxCell id="fdY3iPm0eYBTXGuh3AIi-306" value="&amp;gt;1" style="rhombus;whiteSpace=wrap;html=1;" parent="fdY3iPm0eYBTXGuh3AIi-216" vertex="1">
          <mxGeometry x="149.25" y="1370" width="80" height="80" as="geometry" />
        </mxCell>
        <mxCell id="fdY3iPm0eYBTXGuh3AIi-307" value="" style="edgeStyle=orthogonalEdgeStyle;rounded=0;orthogonalLoop=1;jettySize=auto;html=1;" parent="fdY3iPm0eYBTXGuh3AIi-216" source="fdY3iPm0eYBTXGuh3AIi-308" target="fdY3iPm0eYBTXGuh3AIi-310" edge="1">
          <mxGeometry relative="1" as="geometry" />
        </mxCell>
        <mxCell id="fdY3iPm0eYBTXGuh3AIi-308" value="&amp;gt;1" style="rhombus;whiteSpace=wrap;html=1;" parent="fdY3iPm0eYBTXGuh3AIi-216" vertex="1">
          <mxGeometry x="620" y="970" width="80" height="80" as="geometry" />
        </mxCell>
        <mxCell id="fdY3iPm0eYBTXGuh3AIi-309" value="" style="edgeStyle=orthogonalEdgeStyle;rounded=0;orthogonalLoop=1;jettySize=auto;html=1;" parent="fdY3iPm0eYBTXGuh3AIi-216" source="fdY3iPm0eYBTXGuh3AIi-310" target="fdY3iPm0eYBTXGuh3AIi-311" edge="1">
          <mxGeometry relative="1" as="geometry" />
        </mxCell>
        <mxCell id="fdY3iPm0eYBTXGuh3AIi-310" value="&amp;gt;1" style="rhombus;whiteSpace=wrap;html=1;" parent="fdY3iPm0eYBTXGuh3AIi-216" vertex="1">
          <mxGeometry x="620" y="1140" width="80" height="80" as="geometry" />
        </mxCell>
        <mxCell id="fdY3iPm0eYBTXGuh3AIi-311" value="&amp;gt;1" style="rhombus;whiteSpace=wrap;html=1;" parent="fdY3iPm0eYBTXGuh3AIi-216" vertex="1">
          <mxGeometry x="620" y="1300" width="80" height="80" as="geometry" />
        </mxCell>
        <mxCell id="fdY3iPm0eYBTXGuh3AIi-312" value="" style="ellipse;whiteSpace=wrap;html=1;aspect=fixed;" parent="fdY3iPm0eYBTXGuh3AIi-216" vertex="1">
          <mxGeometry x="296.25" y="873" width="40" height="40" as="geometry" />
        </mxCell>
        <mxCell id="fdY3iPm0eYBTXGuh3AIi-313" value="" style="edgeStyle=orthogonalEdgeStyle;rounded=0;orthogonalLoop=1;jettySize=auto;html=1;exitX=0.5;exitY=1;exitDx=0;exitDy=0;entryX=0.5;entryY=0;entryDx=0;entryDy=0;" parent="fdY3iPm0eYBTXGuh3AIi-216" source="fdY3iPm0eYBTXGuh3AIi-254" target="fdY3iPm0eYBTXGuh3AIi-312" edge="1">
          <mxGeometry relative="1" as="geometry">
            <mxPoint x="-400" y="1450" as="sourcePoint" />
            <mxPoint x="-401" y="1630" as="targetPoint" />
          </mxGeometry>
        </mxCell>
        <mxCell id="fdY3iPm0eYBTXGuh3AIi-314" value="" style="ellipse;whiteSpace=wrap;html=1;aspect=fixed;" parent="fdY3iPm0eYBTXGuh3AIi-216" vertex="1">
          <mxGeometry x="499.99" y="873" width="40" height="40" as="geometry" />
        </mxCell>
        <mxCell id="fdY3iPm0eYBTXGuh3AIi-315" value="" style="edgeStyle=orthogonalEdgeStyle;rounded=0;orthogonalLoop=1;jettySize=auto;html=1;" parent="fdY3iPm0eYBTXGuh3AIi-216" source="fdY3iPm0eYBTXGuh3AIi-256" target="fdY3iPm0eYBTXGuh3AIi-314" edge="1">
          <mxGeometry relative="1" as="geometry">
            <mxPoint x="-200" y="1450" as="sourcePoint" />
            <mxPoint x="-200" y="1630" as="targetPoint" />
          </mxGeometry>
        </mxCell>
        <mxCell id="fdY3iPm0eYBTXGuh3AIi-316" value="" style="edgeStyle=orthogonalEdgeStyle;rounded=0;orthogonalLoop=1;jettySize=auto;html=1;exitX=0.5;exitY=1;exitDx=0;exitDy=0;" parent="fdY3iPm0eYBTXGuh3AIi-216" source="fdY3iPm0eYBTXGuh3AIi-311" target="fdY3iPm0eYBTXGuh3AIi-318" edge="1">
          <mxGeometry relative="1" as="geometry">
            <mxPoint x="-60" y="1990" as="sourcePoint" />
            <mxPoint x="-200" y="2260" as="targetPoint" />
            <Array as="points">
              <mxPoint x="660" y="1570" />
            </Array>
          </mxGeometry>
        </mxCell>
        <mxCell id="fdY3iPm0eYBTXGuh3AIi-317" style="edgeStyle=orthogonalEdgeStyle;rounded=0;orthogonalLoop=1;jettySize=auto;html=1;entryX=0;entryY=0.5;entryDx=0;entryDy=0;" parent="fdY3iPm0eYBTXGuh3AIi-216" source="fdY3iPm0eYBTXGuh3AIi-318" target="fdY3iPm0eYBTXGuh3AIi-314" edge="1">
          <mxGeometry relative="1" as="geometry">
            <Array as="points">
              <mxPoint x="430" y="1570" />
              <mxPoint x="430" y="893" />
            </Array>
          </mxGeometry>
        </mxCell>
        <mxCell id="fdY3iPm0eYBTXGuh3AIi-318" value="ต้องการสินค้าหรือไม่" style="rhombus;whiteSpace=wrap;html=1;" parent="fdY3iPm0eYBTXGuh3AIi-216" vertex="1">
          <mxGeometry x="462.5" y="1530" width="115.01" height="80" as="geometry" />
        </mxCell>
        <mxCell id="fdY3iPm0eYBTXGuh3AIi-319" style="edgeStyle=orthogonalEdgeStyle;rounded=0;orthogonalLoop=1;jettySize=auto;html=1;entryX=1;entryY=0.5;entryDx=0;entryDy=0;" parent="fdY3iPm0eYBTXGuh3AIi-216" source="fdY3iPm0eYBTXGuh3AIi-320" target="fdY3iPm0eYBTXGuh3AIi-312" edge="1">
          <mxGeometry relative="1" as="geometry">
            <Array as="points">
              <mxPoint x="410" y="1570" />
              <mxPoint x="410" y="893" />
            </Array>
          </mxGeometry>
        </mxCell>
        <mxCell id="fdY3iPm0eYBTXGuh3AIi-320" value="ต้องการสินค้าหรือไม่" style="rhombus;whiteSpace=wrap;html=1;" parent="fdY3iPm0eYBTXGuh3AIi-216" vertex="1">
          <mxGeometry x="260" y="1530" width="120" height="80" as="geometry" />
        </mxCell>
        <mxCell id="fdY3iPm0eYBTXGuh3AIi-321" style="edgeStyle=orthogonalEdgeStyle;rounded=0;orthogonalLoop=1;jettySize=auto;html=1;entryX=0.5;entryY=0;entryDx=0;entryDy=0;" parent="fdY3iPm0eYBTXGuh3AIi-216" source="fdY3iPm0eYBTXGuh3AIi-288" target="fdY3iPm0eYBTXGuh3AIi-320" edge="1">
          <mxGeometry relative="1" as="geometry" />
        </mxCell>
        <mxCell id="siC57HpYKDQkwJZfV9jp-5" style="edgeStyle=orthogonalEdgeStyle;rounded=0;orthogonalLoop=1;jettySize=auto;html=1;entryX=0.5;entryY=0;entryDx=0;entryDy=0;" edge="1" parent="fdY3iPm0eYBTXGuh3AIi-216" source="siC57HpYKDQkwJZfV9jp-1" target="fdY3iPm0eYBTXGuh3AIi-266">
          <mxGeometry relative="1" as="geometry" />
        </mxCell>
        <mxCell id="siC57HpYKDQkwJZfV9jp-1" value="แสดงจำนวนเงินที่ต้องชำระ" style="shape=parallelogram;perimeter=parallelogramPerimeter;whiteSpace=wrap;html=1;fixedSize=1;" vertex="1" parent="fdY3iPm0eYBTXGuh3AIi-216">
          <mxGeometry x="326.25" y="2230" width="172.5" height="60" as="geometry" />
        </mxCell>
        <mxCell id="siC57HpYKDQkwJZfV9jp-4" style="edgeStyle=orthogonalEdgeStyle;rounded=0;orthogonalLoop=1;jettySize=auto;html=1;entryX=0.542;entryY=0.016;entryDx=0;entryDy=0;entryPerimeter=0;" edge="1" parent="fdY3iPm0eYBTXGuh3AIi-216" source="fdY3iPm0eYBTXGuh3AIi-268" target="siC57HpYKDQkwJZfV9jp-1">
          <mxGeometry relative="1" as="geometry" />
        </mxCell>
        <mxCell id="siC57HpYKDQkwJZfV9jp-28" style="edgeStyle=orthogonalEdgeStyle;rounded=0;orthogonalLoop=1;jettySize=auto;html=1;" edge="1" parent="fdY3iPm0eYBTXGuh3AIi-216" source="siC57HpYKDQkwJZfV9jp-26" target="fdY3iPm0eYBTXGuh3AIi-269">
          <mxGeometry relative="1" as="geometry" />
        </mxCell>
        <mxCell id="siC57HpYKDQkwJZfV9jp-26" value="ขอบคุณที่ใช้บริการ" style="rounded=0;whiteSpace=wrap;html=1;" vertex="1" parent="fdY3iPm0eYBTXGuh3AIi-216">
          <mxGeometry x="355" y="2750" width="120" height="60" as="geometry" />
        </mxCell>
        <mxCell id="fdY3iPm0eYBTXGuh3AIi-322" value="&lt;font data-font-src=&quot;https://fonts.googleapis.com/css?family=Sarabun&quot; face=&quot;Sarabun&quot;&gt;โจทย์ปัญหา&lt;/font&gt;" style="swimlane;whiteSpace=wrap;html=1;" parent="1" vertex="1">
          <mxGeometry x="800" y="990" width="640" height="240" as="geometry" />
        </mxCell>
        <mxCell id="fdY3iPm0eYBTXGuh3AIi-323" value="&lt;font data-font-src=&quot;https://fonts.googleapis.com/css?family=Sarabun&quot; face=&quot;Sarabun&quot; style=&quot;font-size: 14px;&quot;&gt;จงเขียน Flowchart เพื่อแสดงขั้นตอนการทำงาน ของเครื่องขายน้ำอัตโนมัติที่ชื่อว่า &quot;ตะพาบลอย&quot;&lt;br&gt;โดยจะต้องมีสินค้าดังนี้&lt;br&gt;&lt;u&gt;ประเภทน้ำ&lt;span style=&quot;white-space: pre;&quot;&gt;&#x9;&lt;/span&gt;&lt;span style=&quot;white-space: pre;&quot;&gt;&#x9;&lt;/span&gt;&lt;span style=&quot;white-space: pre;&quot;&gt;&#x9;&lt;/span&gt;&lt;span style=&quot;white-space: pre;&quot;&gt;&#x9;&lt;/span&gt;&lt;span style=&quot;white-space: pre;&quot;&gt;&#x9;&lt;/span&gt;&lt;span style=&quot;white-space: pre;&quot;&gt;&#x9;&lt;span style=&quot;white-space: pre;&quot;&gt;&#x9;&lt;/span&gt;ข&lt;/span&gt;นม&lt;/u&gt;&lt;br&gt;&lt;span style=&quot;white-space: pre;&quot;&gt;&#x9;&lt;/span&gt;- โค้ก กระป๋องละ 10 บาท&lt;span style=&quot;white-space: pre;&quot;&gt;&#x9;&lt;/span&gt;&lt;span style=&quot;white-space: pre;&quot;&gt;&#x9;&lt;/span&gt;&lt;span style=&quot;white-space: pre;&quot;&gt;&#x9;&lt;/span&gt;&lt;span style=&quot;white-space: pre;&quot;&gt;&#x9;&lt;/span&gt;- เมล็ดทานตะวัน 13 บาท&lt;br&gt;&lt;span style=&quot;white-space: pre;&quot;&gt;&#x9;&lt;/span&gt;- น้ำเขียว กระป๋องละ 12 บาท&lt;span style=&quot;white-space: pre;&quot;&gt;&#x9;&lt;/span&gt;&lt;span style=&quot;white-space: pre;&quot;&gt;&#x9;&lt;/span&gt;&lt;span style=&quot;white-space: pre;&quot;&gt;&#x9;&lt;/span&gt;- ถั่วแปบ 20 บาท&lt;br&gt;&lt;span style=&quot;white-space: pre;&quot;&gt;&#x9;&lt;/span&gt;- อเมริกาโน่ 30 บาท&lt;span style=&quot;white-space: pre;&quot;&gt;&#x9;&lt;/span&gt;&lt;span style=&quot;white-space: pre;&quot;&gt;&#x9;&lt;/span&gt;&lt;span style=&quot;white-space: pre;&quot;&gt;&#x9;&lt;/span&gt;&lt;span style=&quot;white-space: pre;&quot;&gt;&#x9;&lt;/span&gt;&lt;span style=&quot;white-space: pre;&quot;&gt;&#x9;&lt;/span&gt;- จิ้นส้มหมก 15 บาท&lt;br&gt;&lt;span style=&quot;white-space: pre;&quot;&gt;&#x9;&lt;/span&gt;- ลาเต้ หวานเจี๊ยบ 35 บาท&lt;span style=&quot;white-space: pre;&quot;&gt;&#x9;&lt;/span&gt;&lt;br&gt;&lt;br&gt;&lt;u&gt;สิ่งที่ระบบควรจะทำได้&lt;/u&gt;&lt;br&gt;&lt;span style=&quot;white-space: pre;&quot;&gt;&#x9;&lt;/span&gt;- ลูกค้าเลือกสินค้า, ระบบจะต้องรวมยอดขาย และรวมรายการสินค้าทั้งหมดที่ลูกค้าเลือก&lt;br&gt;&lt;span style=&quot;white-space: pre;&quot;&gt;&#x9;&lt;/span&gt;- สรุปยอดว่าเหลือเงินในตู้อีกเท่าไหร่ เหลือเหรียญอะไรบ้าง? ธนบัตรอะไรบ้าง? อย่างละเท่าไหร่?&lt;br&gt;&lt;br&gt;&lt;br&gt;&lt;/font&gt;" style="text;html=1;align=left;verticalAlign=middle;resizable=0;points=[];autosize=1;strokeColor=none;fillColor=none;fontSize=14;" parent="fdY3iPm0eYBTXGuh3AIi-322" vertex="1">
          <mxGeometry x="25" y="30" width="580" height="240" as="geometry" />
        </mxCell>
        <mxCell id="fdY3iPm0eYBTXGuh3AIi-324" value="&lt;span style=&quot;font-weight: 400;&quot;&gt;ฟังชั่นตรวจสอบสินค้าภายในเครื่อง&lt;/span&gt;" style="swimlane;whiteSpace=wrap;html=1;" parent="1" vertex="1">
          <mxGeometry x="1880" y="1260" width="830" height="2200" as="geometry" />
        </mxCell>
        <mxCell id="fdY3iPm0eYBTXGuh3AIi-325" value="" style="edgeStyle=orthogonalEdgeStyle;rounded=0;orthogonalLoop=1;jettySize=auto;html=1;" parent="fdY3iPm0eYBTXGuh3AIi-324" source="fdY3iPm0eYBTXGuh3AIi-326" target="fdY3iPm0eYBTXGuh3AIi-328" edge="1">
          <mxGeometry relative="1" as="geometry" />
        </mxCell>
        <mxCell id="fdY3iPm0eYBTXGuh3AIi-326" value="&lt;font style=&quot;font-size: 15px;&quot;&gt;เริ่มต้น&lt;/font&gt;" style="strokeWidth=1;html=1;shape=mxgraph.flowchart.terminator;whiteSpace=wrap;" parent="fdY3iPm0eYBTXGuh3AIi-324" vertex="1">
          <mxGeometry x="293" y="40" width="130" height="60" as="geometry" />
        </mxCell>
        <mxCell id="fdY3iPm0eYBTXGuh3AIi-327" value="" style="edgeStyle=orthogonalEdgeStyle;rounded=0;orthogonalLoop=1;jettySize=auto;html=1;" parent="fdY3iPm0eYBTXGuh3AIi-324" source="fdY3iPm0eYBTXGuh3AIi-328" target="fdY3iPm0eYBTXGuh3AIi-330" edge="1">
          <mxGeometry relative="1" as="geometry" />
        </mxCell>
        <mxCell id="fdY3iPm0eYBTXGuh3AIi-328" value="ตรวจสอบสินค้าภายในเครื่อง" style="rounded=0;whiteSpace=wrap;html=1;" parent="fdY3iPm0eYBTXGuh3AIi-324" vertex="1">
          <mxGeometry x="298" y="160" width="120" height="60" as="geometry" />
        </mxCell>
        <mxCell id="fdY3iPm0eYBTXGuh3AIi-329" value="" style="edgeStyle=orthogonalEdgeStyle;rounded=0;orthogonalLoop=1;jettySize=auto;html=1;" parent="fdY3iPm0eYBTXGuh3AIi-324" source="fdY3iPm0eYBTXGuh3AIi-330" target="fdY3iPm0eYBTXGuh3AIi-333" edge="1">
          <mxGeometry relative="1" as="geometry" />
        </mxCell>
        <mxCell id="fdY3iPm0eYBTXGuh3AIi-330" value="ตรวจสอบ&quot;จำนวน&quot;ของประเภทสินค้าในเครื่อง" style="rounded=0;whiteSpace=wrap;html=1;" parent="fdY3iPm0eYBTXGuh3AIi-324" vertex="1">
          <mxGeometry x="298" y="270" width="120" height="60" as="geometry" />
        </mxCell>
        <mxCell id="fdY3iPm0eYBTXGuh3AIi-331" value="" style="edgeStyle=orthogonalEdgeStyle;rounded=0;orthogonalLoop=1;jettySize=auto;html=1;" parent="fdY3iPm0eYBTXGuh3AIi-324" source="fdY3iPm0eYBTXGuh3AIi-333" target="fdY3iPm0eYBTXGuh3AIi-336" edge="1">
          <mxGeometry relative="1" as="geometry" />
        </mxCell>
        <mxCell id="fdY3iPm0eYBTXGuh3AIi-332" value="" style="edgeStyle=orthogonalEdgeStyle;rounded=0;orthogonalLoop=1;jettySize=auto;html=1;" parent="fdY3iPm0eYBTXGuh3AIi-324" source="fdY3iPm0eYBTXGuh3AIi-333" target="fdY3iPm0eYBTXGuh3AIi-338" edge="1">
          <mxGeometry relative="1" as="geometry" />
        </mxCell>
        <mxCell id="fdY3iPm0eYBTXGuh3AIi-333" value="สินค้าประเภทนํ้า" style="rhombus;whiteSpace=wrap;html=1;" parent="fdY3iPm0eYBTXGuh3AIi-324" vertex="1">
          <mxGeometry x="298" y="370" width="120" height="110" as="geometry" />
        </mxCell>
        <mxCell id="fdY3iPm0eYBTXGuh3AIi-334" value="" style="edgeStyle=orthogonalEdgeStyle;rounded=0;orthogonalLoop=1;jettySize=auto;html=1;" parent="fdY3iPm0eYBTXGuh3AIi-324" source="fdY3iPm0eYBTXGuh3AIi-336" target="fdY3iPm0eYBTXGuh3AIi-340" edge="1">
          <mxGeometry relative="1" as="geometry" />
        </mxCell>
        <mxCell id="fdY3iPm0eYBTXGuh3AIi-335" style="edgeStyle=orthogonalEdgeStyle;rounded=0;orthogonalLoop=1;jettySize=auto;html=1;" parent="fdY3iPm0eYBTXGuh3AIi-324" source="fdY3iPm0eYBTXGuh3AIi-336" target="fdY3iPm0eYBTXGuh3AIi-391" edge="1">
          <mxGeometry relative="1" as="geometry" />
        </mxCell>
        <mxCell id="fdY3iPm0eYBTXGuh3AIi-336" value="สินค้าประเภทขนม" style="rhombus;whiteSpace=wrap;html=1;" parent="fdY3iPm0eYBTXGuh3AIi-324" vertex="1">
          <mxGeometry x="498" y="370" width="120" height="110" as="geometry" />
        </mxCell>
        <mxCell id="fdY3iPm0eYBTXGuh3AIi-337" value="" style="edgeStyle=orthogonalEdgeStyle;rounded=0;orthogonalLoop=1;jettySize=auto;html=1;" parent="fdY3iPm0eYBTXGuh3AIi-324" source="fdY3iPm0eYBTXGuh3AIi-338" target="fdY3iPm0eYBTXGuh3AIi-343" edge="1">
          <mxGeometry relative="1" as="geometry" />
        </mxCell>
        <mxCell id="fdY3iPm0eYBTXGuh3AIi-338" value="เช็ดจำนวนของสินค้าประเภทนํ้าแต่ละอย่าง" style="rounded=0;whiteSpace=wrap;html=1;" parent="fdY3iPm0eYBTXGuh3AIi-324" vertex="1">
          <mxGeometry x="298" y="525" width="120" height="60" as="geometry" />
        </mxCell>
        <mxCell id="fdY3iPm0eYBTXGuh3AIi-339" value="" style="edgeStyle=orthogonalEdgeStyle;rounded=0;orthogonalLoop=1;jettySize=auto;html=1;" parent="fdY3iPm0eYBTXGuh3AIi-324" source="fdY3iPm0eYBTXGuh3AIi-340" target="fdY3iPm0eYBTXGuh3AIi-349" edge="1">
          <mxGeometry relative="1" as="geometry" />
        </mxCell>
        <mxCell id="fdY3iPm0eYBTXGuh3AIi-340" value="เช็ดจำนวนของสินค้าประเภทขนมแต่ละอย่าง" style="rounded=0;whiteSpace=wrap;html=1;" parent="fdY3iPm0eYBTXGuh3AIi-324" vertex="1">
          <mxGeometry x="492" y="525" width="132" height="60" as="geometry" />
        </mxCell>
        <mxCell id="fdY3iPm0eYBTXGuh3AIi-341" value="" style="edgeStyle=orthogonalEdgeStyle;rounded=0;orthogonalLoop=1;jettySize=auto;html=1;" parent="fdY3iPm0eYBTXGuh3AIi-324" source="fdY3iPm0eYBTXGuh3AIi-343" target="fdY3iPm0eYBTXGuh3AIi-346" edge="1">
          <mxGeometry relative="1" as="geometry" />
        </mxCell>
        <mxCell id="fdY3iPm0eYBTXGuh3AIi-342" style="edgeStyle=orthogonalEdgeStyle;rounded=0;orthogonalLoop=1;jettySize=auto;html=1;exitX=0;exitY=0.5;exitDx=0;exitDy=0;entryX=1;entryY=0.5;entryDx=0;entryDy=0;" parent="fdY3iPm0eYBTXGuh3AIi-324" source="fdY3iPm0eYBTXGuh3AIi-343" target="fdY3iPm0eYBTXGuh3AIi-365" edge="1">
          <mxGeometry relative="1" as="geometry" />
        </mxCell>
        <mxCell id="fdY3iPm0eYBTXGuh3AIi-343" value="โค้กกระป๋องมีหรือไม่" style="rhombus;whiteSpace=wrap;html=1;" parent="fdY3iPm0eYBTXGuh3AIi-324" vertex="1">
          <mxGeometry x="298" y="640" width="120" height="110" as="geometry" />
        </mxCell>
        <mxCell id="fdY3iPm0eYBTXGuh3AIi-344" value="" style="edgeStyle=orthogonalEdgeStyle;rounded=0;orthogonalLoop=1;jettySize=auto;html=1;" parent="fdY3iPm0eYBTXGuh3AIi-324" source="fdY3iPm0eYBTXGuh3AIi-346" target="fdY3iPm0eYBTXGuh3AIi-355" edge="1">
          <mxGeometry relative="1" as="geometry" />
        </mxCell>
        <mxCell id="fdY3iPm0eYBTXGuh3AIi-345" value="" style="edgeStyle=orthogonalEdgeStyle;rounded=0;orthogonalLoop=1;jettySize=auto;html=1;" parent="fdY3iPm0eYBTXGuh3AIi-324" source="fdY3iPm0eYBTXGuh3AIi-346" target="fdY3iPm0eYBTXGuh3AIi-367" edge="1">
          <mxGeometry relative="1" as="geometry" />
        </mxCell>
        <mxCell id="fdY3iPm0eYBTXGuh3AIi-346" value="น้ำเขียว กระป๋องมีหรือไม่" style="rhombus;whiteSpace=wrap;html=1;" parent="fdY3iPm0eYBTXGuh3AIi-324" vertex="1">
          <mxGeometry x="283" y="789" width="150" height="110" as="geometry" />
        </mxCell>
        <mxCell id="fdY3iPm0eYBTXGuh3AIi-347" value="" style="edgeStyle=orthogonalEdgeStyle;rounded=0;orthogonalLoop=1;jettySize=auto;html=1;" parent="fdY3iPm0eYBTXGuh3AIi-324" source="fdY3iPm0eYBTXGuh3AIi-349" target="fdY3iPm0eYBTXGuh3AIi-373" edge="1">
          <mxGeometry relative="1" as="geometry" />
        </mxCell>
        <mxCell id="fdY3iPm0eYBTXGuh3AIi-348" value="" style="edgeStyle=orthogonalEdgeStyle;rounded=0;orthogonalLoop=1;jettySize=auto;html=1;" parent="fdY3iPm0eYBTXGuh3AIi-324" source="fdY3iPm0eYBTXGuh3AIi-349" target="fdY3iPm0eYBTXGuh3AIi-391" edge="1">
          <mxGeometry relative="1" as="geometry" />
        </mxCell>
        <mxCell id="fdY3iPm0eYBTXGuh3AIi-349" value="เมล็ดทานตะวันมีหรือไม่" style="rhombus;whiteSpace=wrap;html=1;" parent="fdY3iPm0eYBTXGuh3AIi-324" vertex="1">
          <mxGeometry x="493" y="640" width="130" height="110" as="geometry" />
        </mxCell>
        <mxCell id="fdY3iPm0eYBTXGuh3AIi-350" value="" style="edgeStyle=orthogonalEdgeStyle;rounded=0;orthogonalLoop=1;jettySize=auto;html=1;" parent="fdY3iPm0eYBTXGuh3AIi-324" source="fdY3iPm0eYBTXGuh3AIi-352" target="fdY3iPm0eYBTXGuh3AIi-375" edge="1">
          <mxGeometry relative="1" as="geometry" />
        </mxCell>
        <mxCell id="fdY3iPm0eYBTXGuh3AIi-351" value="" style="edgeStyle=orthogonalEdgeStyle;rounded=0;orthogonalLoop=1;jettySize=auto;html=1;" parent="fdY3iPm0eYBTXGuh3AIi-324" source="fdY3iPm0eYBTXGuh3AIi-352" target="fdY3iPm0eYBTXGuh3AIi-393" edge="1">
          <mxGeometry relative="1" as="geometry" />
        </mxCell>
        <mxCell id="fdY3iPm0eYBTXGuh3AIi-352" value="ถั่วแปบมีหรือไม่" style="rhombus;whiteSpace=wrap;html=1;" parent="fdY3iPm0eYBTXGuh3AIi-324" vertex="1">
          <mxGeometry x="498" y="890" width="120" height="110" as="geometry" />
        </mxCell>
        <mxCell id="fdY3iPm0eYBTXGuh3AIi-353" value="" style="edgeStyle=orthogonalEdgeStyle;rounded=0;orthogonalLoop=1;jettySize=auto;html=1;" parent="fdY3iPm0eYBTXGuh3AIi-324" source="fdY3iPm0eYBTXGuh3AIi-355" target="fdY3iPm0eYBTXGuh3AIi-361" edge="1">
          <mxGeometry relative="1" as="geometry" />
        </mxCell>
        <mxCell id="fdY3iPm0eYBTXGuh3AIi-354" value="" style="edgeStyle=orthogonalEdgeStyle;rounded=0;orthogonalLoop=1;jettySize=auto;html=1;" parent="fdY3iPm0eYBTXGuh3AIi-324" source="fdY3iPm0eYBTXGuh3AIi-355" target="fdY3iPm0eYBTXGuh3AIi-369" edge="1">
          <mxGeometry relative="1" as="geometry" />
        </mxCell>
        <mxCell id="fdY3iPm0eYBTXGuh3AIi-355" value="อเมริกาโน่มีหรือไม่" style="rhombus;whiteSpace=wrap;html=1;" parent="fdY3iPm0eYBTXGuh3AIi-324" vertex="1">
          <mxGeometry x="298" y="940" width="120" height="110" as="geometry" />
        </mxCell>
        <mxCell id="fdY3iPm0eYBTXGuh3AIi-356" value="" style="edgeStyle=orthogonalEdgeStyle;rounded=0;orthogonalLoop=1;jettySize=auto;html=1;" parent="fdY3iPm0eYBTXGuh3AIi-324" source="fdY3iPm0eYBTXGuh3AIi-358" target="fdY3iPm0eYBTXGuh3AIi-386" edge="1">
          <mxGeometry relative="1" as="geometry" />
        </mxCell>
        <mxCell id="fdY3iPm0eYBTXGuh3AIi-357" style="edgeStyle=orthogonalEdgeStyle;rounded=0;orthogonalLoop=1;jettySize=auto;html=1;entryX=0.5;entryY=0;entryDx=0;entryDy=0;" parent="fdY3iPm0eYBTXGuh3AIi-324" source="fdY3iPm0eYBTXGuh3AIi-358" target="fdY3iPm0eYBTXGuh3AIi-377" edge="1">
          <mxGeometry relative="1" as="geometry" />
        </mxCell>
        <mxCell id="fdY3iPm0eYBTXGuh3AIi-358" value="จิ้นส้มหมกมีหรือไม่&amp;nbsp;" style="rhombus;whiteSpace=wrap;html=1;" parent="fdY3iPm0eYBTXGuh3AIi-324" vertex="1">
          <mxGeometry x="498" y="1140" width="120" height="110" as="geometry" />
        </mxCell>
        <mxCell id="fdY3iPm0eYBTXGuh3AIi-359" value="" style="edgeStyle=orthogonalEdgeStyle;rounded=0;orthogonalLoop=1;jettySize=auto;html=1;" parent="fdY3iPm0eYBTXGuh3AIi-324" source="fdY3iPm0eYBTXGuh3AIi-361" target="fdY3iPm0eYBTXGuh3AIi-371" edge="1">
          <mxGeometry relative="1" as="geometry" />
        </mxCell>
        <mxCell id="siC57HpYKDQkwJZfV9jp-22" style="edgeStyle=orthogonalEdgeStyle;rounded=0;orthogonalLoop=1;jettySize=auto;html=1;entryX=0;entryY=0.5;entryDx=0;entryDy=0;" edge="1" parent="fdY3iPm0eYBTXGuh3AIi-324" source="fdY3iPm0eYBTXGuh3AIi-361" target="fdY3iPm0eYBTXGuh3AIi-424">
          <mxGeometry relative="1" as="geometry">
            <Array as="points">
              <mxPoint x="358" y="1650" />
            </Array>
          </mxGeometry>
        </mxCell>
        <mxCell id="fdY3iPm0eYBTXGuh3AIi-361" value="ลาเต้หวานเจี๊ยบมีหรือไม่" style="rhombus;whiteSpace=wrap;html=1;" parent="fdY3iPm0eYBTXGuh3AIi-324" vertex="1">
          <mxGeometry x="288" y="1090" width="140" height="110" as="geometry" />
        </mxCell>
        <mxCell id="fdY3iPm0eYBTXGuh3AIi-364" style="edgeStyle=orthogonalEdgeStyle;rounded=0;orthogonalLoop=1;jettySize=auto;html=1;exitX=0.5;exitY=1;exitDx=0;exitDy=0;entryX=0.5;entryY=0;entryDx=0;entryDy=0;" parent="fdY3iPm0eYBTXGuh3AIi-324" source="fdY3iPm0eYBTXGuh3AIi-365" target="fdY3iPm0eYBTXGuh3AIi-367" edge="1">
          <mxGeometry relative="1" as="geometry" />
        </mxCell>
        <mxCell id="fdY3iPm0eYBTXGuh3AIi-365" value="" style="ellipse;whiteSpace=wrap;html=1;aspect=fixed;" parent="fdY3iPm0eYBTXGuh3AIi-324" vertex="1">
          <mxGeometry x="208" y="675" width="40" height="40" as="geometry" />
        </mxCell>
        <mxCell id="fdY3iPm0eYBTXGuh3AIi-366" value="" style="edgeStyle=orthogonalEdgeStyle;rounded=0;orthogonalLoop=1;jettySize=auto;html=1;" parent="fdY3iPm0eYBTXGuh3AIi-324" source="fdY3iPm0eYBTXGuh3AIi-367" target="fdY3iPm0eYBTXGuh3AIi-369" edge="1">
          <mxGeometry relative="1" as="geometry" />
        </mxCell>
        <mxCell id="fdY3iPm0eYBTXGuh3AIi-367" value="" style="ellipse;whiteSpace=wrap;html=1;aspect=fixed;" parent="fdY3iPm0eYBTXGuh3AIi-324" vertex="1">
          <mxGeometry x="208" y="824" width="40" height="40" as="geometry" />
        </mxCell>
        <mxCell id="fdY3iPm0eYBTXGuh3AIi-368" value="" style="edgeStyle=orthogonalEdgeStyle;rounded=0;orthogonalLoop=1;jettySize=auto;html=1;" parent="fdY3iPm0eYBTXGuh3AIi-324" source="fdY3iPm0eYBTXGuh3AIi-369" target="fdY3iPm0eYBTXGuh3AIi-371" edge="1">
          <mxGeometry relative="1" as="geometry" />
        </mxCell>
        <mxCell id="fdY3iPm0eYBTXGuh3AIi-369" value="" style="ellipse;whiteSpace=wrap;html=1;aspect=fixed;" parent="fdY3iPm0eYBTXGuh3AIi-324" vertex="1">
          <mxGeometry x="208" y="975" width="40" height="40" as="geometry" />
        </mxCell>
        <mxCell id="fdY3iPm0eYBTXGuh3AIi-370" style="edgeStyle=orthogonalEdgeStyle;rounded=0;orthogonalLoop=1;jettySize=auto;html=1;entryX=0.5;entryY=0;entryDx=0;entryDy=0;" parent="fdY3iPm0eYBTXGuh3AIi-324" source="fdY3iPm0eYBTXGuh3AIi-371" target="fdY3iPm0eYBTXGuh3AIi-379" edge="1">
          <mxGeometry relative="1" as="geometry" />
        </mxCell>
        <mxCell id="fdY3iPm0eYBTXGuh3AIi-371" value="" style="ellipse;whiteSpace=wrap;html=1;aspect=fixed;" parent="fdY3iPm0eYBTXGuh3AIi-324" vertex="1">
          <mxGeometry x="208" y="1125" width="40" height="40" as="geometry" />
        </mxCell>
        <mxCell id="fdY3iPm0eYBTXGuh3AIi-372" value="" style="edgeStyle=orthogonalEdgeStyle;rounded=0;orthogonalLoop=1;jettySize=auto;html=1;" parent="fdY3iPm0eYBTXGuh3AIi-324" source="fdY3iPm0eYBTXGuh3AIi-373" target="fdY3iPm0eYBTXGuh3AIi-352" edge="1">
          <mxGeometry relative="1" as="geometry" />
        </mxCell>
        <mxCell id="fdY3iPm0eYBTXGuh3AIi-373" value="ตรวจสอบวันหมดอายุของเมล็ดทานตะวัน" style="rounded=0;whiteSpace=wrap;html=1;" parent="fdY3iPm0eYBTXGuh3AIi-324" vertex="1">
          <mxGeometry x="498" y="789" width="120" height="60" as="geometry" />
        </mxCell>
        <mxCell id="fdY3iPm0eYBTXGuh3AIi-374" value="" style="edgeStyle=orthogonalEdgeStyle;rounded=0;orthogonalLoop=1;jettySize=auto;html=1;" parent="fdY3iPm0eYBTXGuh3AIi-324" source="fdY3iPm0eYBTXGuh3AIi-375" target="fdY3iPm0eYBTXGuh3AIi-358" edge="1">
          <mxGeometry relative="1" as="geometry" />
        </mxCell>
        <mxCell id="fdY3iPm0eYBTXGuh3AIi-375" value="ตรวจสอบวันหมดอายุของถั่วแปบ" style="rounded=0;whiteSpace=wrap;html=1;" parent="fdY3iPm0eYBTXGuh3AIi-324" vertex="1">
          <mxGeometry x="498" y="1040" width="120" height="60" as="geometry" />
        </mxCell>
        <mxCell id="fdY3iPm0eYBTXGuh3AIi-376" value="" style="edgeStyle=orthogonalEdgeStyle;rounded=0;orthogonalLoop=1;jettySize=auto;html=1;" parent="fdY3iPm0eYBTXGuh3AIi-324" source="fdY3iPm0eYBTXGuh3AIi-377" target="fdY3iPm0eYBTXGuh3AIi-396" edge="1">
          <mxGeometry relative="1" as="geometry" />
        </mxCell>
        <mxCell id="fdY3iPm0eYBTXGuh3AIi-377" value="ตรวจสอบวันหมดอายุของจิ้นส้มหมกมี" style="rounded=0;whiteSpace=wrap;html=1;" parent="fdY3iPm0eYBTXGuh3AIi-324" vertex="1">
          <mxGeometry x="498" y="1270" width="120" height="60" as="geometry" />
        </mxCell>
        <mxCell id="fdY3iPm0eYBTXGuh3AIi-378" value="" style="edgeStyle=orthogonalEdgeStyle;rounded=0;orthogonalLoop=1;jettySize=auto;html=1;entryX=0.5;entryY=0;entryDx=0;entryDy=0;" parent="fdY3iPm0eYBTXGuh3AIi-324" source="fdY3iPm0eYBTXGuh3AIi-379" target="siC57HpYKDQkwJZfV9jp-9" edge="1">
          <mxGeometry relative="1" as="geometry">
            <mxPoint x="228" y="1950" as="targetPoint" />
          </mxGeometry>
        </mxCell>
        <mxCell id="fdY3iPm0eYBTXGuh3AIi-379" value="รับข้อมูลว่ามีสินค้าในเครื่อง" style="shape=parallelogram;perimeter=parallelogramPerimeter;whiteSpace=wrap;html=1;fixedSize=1;" parent="fdY3iPm0eYBTXGuh3AIi-324" vertex="1">
          <mxGeometry x="158" y="1750" width="140" height="70" as="geometry" />
        </mxCell>
        <mxCell id="fdY3iPm0eYBTXGuh3AIi-380" value="" style="edgeStyle=orthogonalEdgeStyle;rounded=0;orthogonalLoop=1;jettySize=auto;html=1;entryX=0.55;entryY=0.02;entryDx=0;entryDy=0;entryPerimeter=0;" parent="fdY3iPm0eYBTXGuh3AIi-324" source="fdY3iPm0eYBTXGuh3AIi-381" target="siC57HpYKDQkwJZfV9jp-6" edge="1">
          <mxGeometry relative="1" as="geometry">
            <mxPoint x="718" y="1950" as="targetPoint" />
          </mxGeometry>
        </mxCell>
        <mxCell id="fdY3iPm0eYBTXGuh3AIi-381" value="รับข้อมูลว่าไม่มีสินค้าเครื่อง" style="shape=parallelogram;perimeter=parallelogramPerimeter;whiteSpace=wrap;html=1;fixedSize=1;" parent="fdY3iPm0eYBTXGuh3AIi-324" vertex="1">
          <mxGeometry x="648" y="1750" width="140" height="70" as="geometry" />
        </mxCell>
        <mxCell id="fdY3iPm0eYBTXGuh3AIi-382" style="edgeStyle=orthogonalEdgeStyle;rounded=0;orthogonalLoop=1;jettySize=auto;html=1;exitX=1;exitY=0.5;exitDx=0;exitDy=0;entryX=0;entryY=0.5;entryDx=0;entryDy=0;" parent="fdY3iPm0eYBTXGuh3AIi-324" source="fdY3iPm0eYBTXGuh3AIi-384" target="fdY3iPm0eYBTXGuh3AIi-381" edge="1">
          <mxGeometry relative="1" as="geometry" />
        </mxCell>
        <mxCell id="fdY3iPm0eYBTXGuh3AIi-383" style="edgeStyle=orthogonalEdgeStyle;rounded=0;orthogonalLoop=1;jettySize=auto;html=1;exitX=0;exitY=0.5;exitDx=0;exitDy=0;" parent="fdY3iPm0eYBTXGuh3AIi-324" source="fdY3iPm0eYBTXGuh3AIi-384" target="fdY3iPm0eYBTXGuh3AIi-379" edge="1">
          <mxGeometry relative="1" as="geometry" />
        </mxCell>
        <mxCell id="fdY3iPm0eYBTXGuh3AIi-384" value="มีสินค้าหรือไม่" style="rhombus;whiteSpace=wrap;html=1;" parent="fdY3iPm0eYBTXGuh3AIi-324" vertex="1">
          <mxGeometry x="405" y="1735" width="110" height="100" as="geometry" />
        </mxCell>
        <mxCell id="fdY3iPm0eYBTXGuh3AIi-385" style="edgeStyle=orthogonalEdgeStyle;rounded=0;orthogonalLoop=1;jettySize=auto;html=1;" parent="fdY3iPm0eYBTXGuh3AIi-324" source="fdY3iPm0eYBTXGuh3AIi-425" target="fdY3iPm0eYBTXGuh3AIi-381" edge="1">
          <mxGeometry relative="1" as="geometry" />
        </mxCell>
        <mxCell id="fdY3iPm0eYBTXGuh3AIi-386" value="" style="ellipse;whiteSpace=wrap;html=1;aspect=fixed;" parent="fdY3iPm0eYBTXGuh3AIi-324" vertex="1">
          <mxGeometry x="698" y="1175" width="40" height="40" as="geometry" />
        </mxCell>
        <mxCell id="fdY3iPm0eYBTXGuh3AIi-390" style="edgeStyle=orthogonalEdgeStyle;rounded=0;orthogonalLoop=1;jettySize=auto;html=1;" parent="fdY3iPm0eYBTXGuh3AIi-324" source="fdY3iPm0eYBTXGuh3AIi-391" target="fdY3iPm0eYBTXGuh3AIi-393" edge="1">
          <mxGeometry relative="1" as="geometry" />
        </mxCell>
        <mxCell id="fdY3iPm0eYBTXGuh3AIi-391" value="" style="ellipse;whiteSpace=wrap;html=1;aspect=fixed;" parent="fdY3iPm0eYBTXGuh3AIi-324" vertex="1">
          <mxGeometry x="698" y="675" width="40" height="40" as="geometry" />
        </mxCell>
        <mxCell id="fdY3iPm0eYBTXGuh3AIi-392" style="edgeStyle=orthogonalEdgeStyle;rounded=0;orthogonalLoop=1;jettySize=auto;html=1;entryX=0.5;entryY=0;entryDx=0;entryDy=0;" parent="fdY3iPm0eYBTXGuh3AIi-324" source="fdY3iPm0eYBTXGuh3AIi-393" target="fdY3iPm0eYBTXGuh3AIi-386" edge="1">
          <mxGeometry relative="1" as="geometry" />
        </mxCell>
        <mxCell id="fdY3iPm0eYBTXGuh3AIi-393" value="" style="ellipse;whiteSpace=wrap;html=1;aspect=fixed;" parent="fdY3iPm0eYBTXGuh3AIi-324" vertex="1">
          <mxGeometry x="698" y="925" width="40" height="40" as="geometry" />
        </mxCell>
        <mxCell id="fdY3iPm0eYBTXGuh3AIi-395" style="edgeStyle=orthogonalEdgeStyle;rounded=0;orthogonalLoop=1;jettySize=auto;html=1;entryX=0;entryY=0.5;entryDx=0;entryDy=0;" parent="fdY3iPm0eYBTXGuh3AIi-324" source="fdY3iPm0eYBTXGuh3AIi-396" target="fdY3iPm0eYBTXGuh3AIi-425" edge="1">
          <mxGeometry relative="1" as="geometry" />
        </mxCell>
        <mxCell id="siC57HpYKDQkwJZfV9jp-24" style="edgeStyle=orthogonalEdgeStyle;rounded=0;orthogonalLoop=1;jettySize=auto;html=1;entryX=1;entryY=0.5;entryDx=0;entryDy=0;" edge="1" parent="fdY3iPm0eYBTXGuh3AIi-324" source="fdY3iPm0eYBTXGuh3AIi-396" target="fdY3iPm0eYBTXGuh3AIi-424">
          <mxGeometry relative="1" as="geometry">
            <Array as="points">
              <mxPoint x="560" y="1650" />
            </Array>
          </mxGeometry>
        </mxCell>
        <mxCell id="fdY3iPm0eYBTXGuh3AIi-396" value="ตรวจสอบวันหมดอายุหรือไม่" style="rhombus;whiteSpace=wrap;html=1;" parent="fdY3iPm0eYBTXGuh3AIi-324" vertex="1">
          <mxGeometry x="494" y="1360" width="130" height="120" as="geometry" />
        </mxCell>
        <mxCell id="fdY3iPm0eYBTXGuh3AIi-397" value="&lt;span style=&quot;font-size: 15px;&quot;&gt;สิ้นสุด&lt;/span&gt;" style="ellipse;whiteSpace=wrap;html=1;" parent="fdY3iPm0eYBTXGuh3AIi-324" vertex="1">
          <mxGeometry x="400" y="2050" width="120" height="80" as="geometry" />
        </mxCell>
        <mxCell id="fdY3iPm0eYBTXGuh3AIi-398" style="edgeStyle=orthogonalEdgeStyle;rounded=0;orthogonalLoop=1;jettySize=auto;html=1;entryX=0.5;entryY=0;entryDx=0;entryDy=0;" parent="fdY3iPm0eYBTXGuh3AIi-324" source="fdY3iPm0eYBTXGuh3AIi-399" target="fdY3iPm0eYBTXGuh3AIi-397" edge="1">
          <mxGeometry relative="1" as="geometry" />
        </mxCell>
        <mxCell id="fdY3iPm0eYBTXGuh3AIi-399" value="" style="ellipse;whiteSpace=wrap;html=1;aspect=fixed;" parent="fdY3iPm0eYBTXGuh3AIi-324" vertex="1">
          <mxGeometry x="440" y="1970" width="40" height="40" as="geometry" />
        </mxCell>
        <mxCell id="fdY3iPm0eYBTXGuh3AIi-401" value="yes" style="text;html=1;align=center;verticalAlign=middle;whiteSpace=wrap;rounded=0;" parent="fdY3iPm0eYBTXGuh3AIi-324" vertex="1">
          <mxGeometry x="363" y="470" width="60" height="30" as="geometry" />
        </mxCell>
        <mxCell id="fdY3iPm0eYBTXGuh3AIi-402" value="yes" style="text;html=1;align=center;verticalAlign=middle;whiteSpace=wrap;rounded=0;" parent="fdY3iPm0eYBTXGuh3AIi-324" vertex="1">
          <mxGeometry x="358" y="740" width="60" height="30" as="geometry" />
        </mxCell>
        <mxCell id="fdY3iPm0eYBTXGuh3AIi-403" value="yes" style="text;html=1;align=center;verticalAlign=middle;whiteSpace=wrap;rounded=0;" parent="fdY3iPm0eYBTXGuh3AIi-324" vertex="1">
          <mxGeometry x="358" y="890" width="60" height="30" as="geometry" />
        </mxCell>
        <mxCell id="fdY3iPm0eYBTXGuh3AIi-404" value="yes" style="text;html=1;align=center;verticalAlign=middle;whiteSpace=wrap;rounded=0;" parent="fdY3iPm0eYBTXGuh3AIi-324" vertex="1">
          <mxGeometry x="358" y="1040" width="60" height="30" as="geometry" />
        </mxCell>
        <mxCell id="fdY3iPm0eYBTXGuh3AIi-405" value="yes" style="text;html=1;align=center;verticalAlign=middle;whiteSpace=wrap;rounded=0;" parent="fdY3iPm0eYBTXGuh3AIi-324" vertex="1">
          <mxGeometry x="358" y="1190" width="60" height="30" as="geometry" />
        </mxCell>
        <mxCell id="fdY3iPm0eYBTXGuh3AIi-406" value="yes" style="text;html=1;align=center;verticalAlign=middle;whiteSpace=wrap;rounded=0;" parent="fdY3iPm0eYBTXGuh3AIi-324" vertex="1">
          <mxGeometry x="498" y="740" width="60" height="30" as="geometry" />
        </mxCell>
        <mxCell id="fdY3iPm0eYBTXGuh3AIi-407" value="yes" style="text;html=1;align=center;verticalAlign=middle;whiteSpace=wrap;rounded=0;" parent="fdY3iPm0eYBTXGuh3AIi-324" vertex="1">
          <mxGeometry x="498" y="985" width="60" height="30" as="geometry" />
        </mxCell>
        <mxCell id="fdY3iPm0eYBTXGuh3AIi-408" value="yes" style="text;html=1;align=center;verticalAlign=middle;whiteSpace=wrap;rounded=0;" parent="fdY3iPm0eYBTXGuh3AIi-324" vertex="1">
          <mxGeometry x="493" y="1230" width="60" height="30" as="geometry" />
        </mxCell>
        <mxCell id="fdY3iPm0eYBTXGuh3AIi-409" value="no" style="text;html=1;align=center;verticalAlign=middle;whiteSpace=wrap;rounded=0;" parent="fdY3iPm0eYBTXGuh3AIi-324" vertex="1">
          <mxGeometry x="258" y="670" width="60" height="30" as="geometry" />
        </mxCell>
        <mxCell id="fdY3iPm0eYBTXGuh3AIi-410" value="no" style="text;html=1;align=center;verticalAlign=middle;whiteSpace=wrap;rounded=0;" parent="fdY3iPm0eYBTXGuh3AIi-324" vertex="1">
          <mxGeometry x="258" y="810" width="60" height="30" as="geometry" />
        </mxCell>
        <mxCell id="fdY3iPm0eYBTXGuh3AIi-411" value="no" style="text;html=1;align=center;verticalAlign=middle;whiteSpace=wrap;rounded=0;" parent="fdY3iPm0eYBTXGuh3AIi-324" vertex="1">
          <mxGeometry x="258" y="965" width="60" height="30" as="geometry" />
        </mxCell>
        <mxCell id="fdY3iPm0eYBTXGuh3AIi-412" value="no" style="text;html=1;align=center;verticalAlign=middle;whiteSpace=wrap;rounded=0;" parent="fdY3iPm0eYBTXGuh3AIi-324" vertex="1">
          <mxGeometry x="258" y="1110" width="60" height="30" as="geometry" />
        </mxCell>
        <mxCell id="fdY3iPm0eYBTXGuh3AIi-413" value="no" style="text;html=1;align=center;verticalAlign=middle;whiteSpace=wrap;rounded=0;" parent="fdY3iPm0eYBTXGuh3AIi-324" vertex="1">
          <mxGeometry x="600" y="1165" width="60" height="30" as="geometry" />
        </mxCell>
        <mxCell id="fdY3iPm0eYBTXGuh3AIi-414" value="no" style="text;html=1;align=center;verticalAlign=middle;whiteSpace=wrap;rounded=0;" parent="fdY3iPm0eYBTXGuh3AIi-324" vertex="1">
          <mxGeometry x="610" y="910" width="60" height="30" as="geometry" />
        </mxCell>
        <mxCell id="fdY3iPm0eYBTXGuh3AIi-415" value="no" style="text;html=1;align=center;verticalAlign=middle;whiteSpace=wrap;rounded=0;" parent="fdY3iPm0eYBTXGuh3AIi-324" vertex="1">
          <mxGeometry x="618" y="660" width="60" height="30" as="geometry" />
        </mxCell>
        <mxCell id="fdY3iPm0eYBTXGuh3AIi-416" value="no" style="text;html=1;align=center;verticalAlign=middle;whiteSpace=wrap;rounded=0;" parent="fdY3iPm0eYBTXGuh3AIi-324" vertex="1">
          <mxGeometry x="610" y="1390" width="60" height="30" as="geometry" />
        </mxCell>
        <mxCell id="fdY3iPm0eYBTXGuh3AIi-417" value="yes" style="text;html=1;align=center;verticalAlign=middle;whiteSpace=wrap;rounded=0;" parent="fdY3iPm0eYBTXGuh3AIi-324" vertex="1">
          <mxGeometry x="571.5" y="1470" width="60" height="30" as="geometry" />
        </mxCell>
        <mxCell id="fdY3iPm0eYBTXGuh3AIi-418" value="yes" style="text;html=1;align=center;verticalAlign=middle;whiteSpace=wrap;rounded=0;" parent="fdY3iPm0eYBTXGuh3AIi-324" vertex="1">
          <mxGeometry x="563" y="470" width="60" height="30" as="geometry" />
        </mxCell>
        <mxCell id="fdY3iPm0eYBTXGuh3AIi-419" value="no" style="text;html=1;align=center;verticalAlign=middle;whiteSpace=wrap;rounded=0;" parent="fdY3iPm0eYBTXGuh3AIi-324" vertex="1">
          <mxGeometry x="408" y="400" width="60" height="30" as="geometry" />
        </mxCell>
        <mxCell id="fdY3iPm0eYBTXGuh3AIi-420" value="no" style="text;html=1;align=center;verticalAlign=middle;whiteSpace=wrap;rounded=0;" parent="fdY3iPm0eYBTXGuh3AIi-324" vertex="1">
          <mxGeometry x="600" y="400" width="60" height="30" as="geometry" />
        </mxCell>
        <mxCell id="fdY3iPm0eYBTXGuh3AIi-423" value="" style="edgeStyle=orthogonalEdgeStyle;rounded=0;orthogonalLoop=1;jettySize=auto;html=1;" parent="fdY3iPm0eYBTXGuh3AIi-324" source="fdY3iPm0eYBTXGuh3AIi-424" target="fdY3iPm0eYBTXGuh3AIi-384" edge="1">
          <mxGeometry relative="1" as="geometry" />
        </mxCell>
        <mxCell id="fdY3iPm0eYBTXGuh3AIi-424" value="" style="ellipse;whiteSpace=wrap;html=1;aspect=fixed;" parent="fdY3iPm0eYBTXGuh3AIi-324" vertex="1">
          <mxGeometry x="440" y="1630" width="40" height="40" as="geometry" />
        </mxCell>
        <mxCell id="fdY3iPm0eYBTXGuh3AIi-425" value="" style="ellipse;whiteSpace=wrap;html=1;aspect=fixed;" parent="fdY3iPm0eYBTXGuh3AIi-324" vertex="1">
          <mxGeometry x="698" y="1400" width="40" height="40" as="geometry" />
        </mxCell>
        <mxCell id="fdY3iPm0eYBTXGuh3AIi-426" value="" style="edgeStyle=orthogonalEdgeStyle;rounded=0;orthogonalLoop=1;jettySize=auto;html=1;" parent="fdY3iPm0eYBTXGuh3AIi-324" source="fdY3iPm0eYBTXGuh3AIi-386" target="fdY3iPm0eYBTXGuh3AIi-425" edge="1">
          <mxGeometry relative="1" as="geometry">
            <mxPoint x="908" y="1565" as="sourcePoint" />
            <mxPoint x="908" y="2100" as="targetPoint" />
          </mxGeometry>
        </mxCell>
        <mxCell id="fdY3iPm0eYBTXGuh3AIi-427" value="yes" style="text;html=1;align=center;verticalAlign=middle;whiteSpace=wrap;rounded=0;" parent="fdY3iPm0eYBTXGuh3AIi-324" vertex="1">
          <mxGeometry x="358" y="1794" width="60" height="30" as="geometry" />
        </mxCell>
        <mxCell id="fdY3iPm0eYBTXGuh3AIi-428" value="no" style="text;html=1;align=center;verticalAlign=middle;whiteSpace=wrap;rounded=0;" parent="fdY3iPm0eYBTXGuh3AIi-324" vertex="1">
          <mxGeometry x="505" y="1793" width="60" height="30" as="geometry" />
        </mxCell>
        <mxCell id="siC57HpYKDQkwJZfV9jp-7" style="edgeStyle=orthogonalEdgeStyle;rounded=0;orthogonalLoop=1;jettySize=auto;html=1;exitX=0;exitY=0.5;exitDx=0;exitDy=0;entryX=1;entryY=0.5;entryDx=0;entryDy=0;" edge="1" parent="fdY3iPm0eYBTXGuh3AIi-324" source="siC57HpYKDQkwJZfV9jp-6" target="fdY3iPm0eYBTXGuh3AIi-399">
          <mxGeometry relative="1" as="geometry" />
        </mxCell>
        <mxCell id="siC57HpYKDQkwJZfV9jp-6" value="รับข้อมูลว่าไม่มีสินค้าเครื่อง" style="shape=parallelogram;perimeter=parallelogramPerimeter;whiteSpace=wrap;html=1;fixedSize=1;" vertex="1" parent="fdY3iPm0eYBTXGuh3AIi-324">
          <mxGeometry x="631.5" y="1955" width="159" height="70" as="geometry" />
        </mxCell>
        <mxCell id="siC57HpYKDQkwJZfV9jp-10" style="edgeStyle=orthogonalEdgeStyle;rounded=0;orthogonalLoop=1;jettySize=auto;html=1;exitX=1;exitY=0.5;exitDx=0;exitDy=0;entryX=0;entryY=0.5;entryDx=0;entryDy=0;" edge="1" parent="fdY3iPm0eYBTXGuh3AIi-324" source="siC57HpYKDQkwJZfV9jp-9" target="fdY3iPm0eYBTXGuh3AIi-399">
          <mxGeometry relative="1" as="geometry" />
        </mxCell>
        <mxCell id="siC57HpYKDQkwJZfV9jp-9" value="แสดงว่ามีสินค้าบนจอแสดงผล" style="shape=parallelogram;perimeter=parallelogramPerimeter;whiteSpace=wrap;html=1;fixedSize=1;" vertex="1" parent="fdY3iPm0eYBTXGuh3AIi-324">
          <mxGeometry x="136" y="1955" width="182" height="70" as="geometry" />
        </mxCell>
        <mxCell id="fdY3iPm0eYBTXGuh3AIi-429" value="&lt;span style=&quot;font-weight: 400;&quot;&gt;ฟังชั่น&lt;/span&gt;&lt;span style=&quot;font-weight: 400;&quot;&gt;เลือกประเภทการชำระเงิน&lt;/span&gt;" style="swimlane;whiteSpace=wrap;html=1;" parent="1" vertex="1">
          <mxGeometry x="2730" y="1260" width="810" height="1230" as="geometry" />
        </mxCell>
        <mxCell id="fdY3iPm0eYBTXGuh3AIi-430" style="edgeStyle=orthogonalEdgeStyle;rounded=0;orthogonalLoop=1;jettySize=auto;html=1;exitX=0.5;exitY=1;exitDx=0;exitDy=0;entryX=0.5;entryY=0;entryDx=0;entryDy=0;" parent="fdY3iPm0eYBTXGuh3AIi-429" source="fdY3iPm0eYBTXGuh3AIi-431" target="fdY3iPm0eYBTXGuh3AIi-434" edge="1">
          <mxGeometry relative="1" as="geometry" />
        </mxCell>
        <mxCell id="fdY3iPm0eYBTXGuh3AIi-431" value="เลือกประเภทการชำระ" style="rounded=0;whiteSpace=wrap;html=1;" parent="fdY3iPm0eYBTXGuh3AIi-429" vertex="1">
          <mxGeometry x="420" y="170" width="120" height="60" as="geometry" />
        </mxCell>
        <mxCell id="fdY3iPm0eYBTXGuh3AIi-432" style="edgeStyle=orthogonalEdgeStyle;rounded=0;orthogonalLoop=1;jettySize=auto;html=1;exitX=0.5;exitY=1;exitDx=0;exitDy=0;entryX=0.5;entryY=0;entryDx=0;entryDy=0;" parent="fdY3iPm0eYBTXGuh3AIi-429" source="fdY3iPm0eYBTXGuh3AIi-434" target="fdY3iPm0eYBTXGuh3AIi-443" edge="1">
          <mxGeometry relative="1" as="geometry" />
        </mxCell>
        <mxCell id="fdY3iPm0eYBTXGuh3AIi-433" style="edgeStyle=orthogonalEdgeStyle;rounded=0;orthogonalLoop=1;jettySize=auto;html=1;exitX=1;exitY=0.5;exitDx=0;exitDy=0;entryX=0;entryY=0.5;entryDx=0;entryDy=0;" parent="fdY3iPm0eYBTXGuh3AIi-429" source="fdY3iPm0eYBTXGuh3AIi-434" target="fdY3iPm0eYBTXGuh3AIi-437" edge="1">
          <mxGeometry relative="1" as="geometry" />
        </mxCell>
        <mxCell id="fdY3iPm0eYBTXGuh3AIi-434" value="ชำระด้วยเหรียญ/แบงค์" style="rhombus;whiteSpace=wrap;html=1;" parent="fdY3iPm0eYBTXGuh3AIi-429" vertex="1">
          <mxGeometry x="419.13" y="250" width="120" height="110" as="geometry" />
        </mxCell>
        <mxCell id="fdY3iPm0eYBTXGuh3AIi-435" style="edgeStyle=orthogonalEdgeStyle;rounded=0;orthogonalLoop=1;jettySize=auto;html=1;exitX=0.5;exitY=0;exitDx=0;exitDy=0;entryX=1;entryY=0.5;entryDx=0;entryDy=0;" parent="fdY3iPm0eYBTXGuh3AIi-429" source="fdY3iPm0eYBTXGuh3AIi-437" target="fdY3iPm0eYBTXGuh3AIi-431" edge="1">
          <mxGeometry relative="1" as="geometry" />
        </mxCell>
        <mxCell id="fdY3iPm0eYBTXGuh3AIi-436" style="edgeStyle=orthogonalEdgeStyle;rounded=0;orthogonalLoop=1;jettySize=auto;html=1;entryX=0.5;entryY=0;entryDx=0;entryDy=0;" parent="fdY3iPm0eYBTXGuh3AIi-429" source="fdY3iPm0eYBTXGuh3AIi-437" target="fdY3iPm0eYBTXGuh3AIi-445" edge="1">
          <mxGeometry relative="1" as="geometry" />
        </mxCell>
        <mxCell id="fdY3iPm0eYBTXGuh3AIi-437" value="โอนเงิน" style="rhombus;whiteSpace=wrap;html=1;" parent="fdY3iPm0eYBTXGuh3AIi-429" vertex="1">
          <mxGeometry x="625.1300000000001" y="250" width="100" height="90" as="geometry" />
        </mxCell>
        <mxCell id="fdY3iPm0eYBTXGuh3AIi-438" style="edgeStyle=orthogonalEdgeStyle;rounded=0;orthogonalLoop=1;jettySize=auto;html=1;exitX=0.5;exitY=1;exitDx=0;exitDy=0;entryX=0.5;entryY=0;entryDx=0;entryDy=0;" parent="fdY3iPm0eYBTXGuh3AIi-429" source="fdY3iPm0eYBTXGuh3AIi-439" edge="1">
          <mxGeometry relative="1" as="geometry">
            <mxPoint x="480" y="560" as="targetPoint" />
          </mxGeometry>
        </mxCell>
        <mxCell id="fdY3iPm0eYBTXGuh3AIi-439" value="&lt;span style=&quot;font-size: 12px;&quot;&gt;ตรวจสอบจำนวนเงิน&lt;/span&gt;" style="rounded=0;whiteSpace=wrap;html=1;" parent="fdY3iPm0eYBTXGuh3AIi-429" vertex="1">
          <mxGeometry x="420" y="464" width="120" height="60" as="geometry" />
        </mxCell>
        <mxCell id="fdY3iPm0eYBTXGuh3AIi-440" style="edgeStyle=orthogonalEdgeStyle;rounded=0;orthogonalLoop=1;jettySize=auto;html=1;entryX=1;entryY=0.5;entryDx=0;entryDy=0;" parent="fdY3iPm0eYBTXGuh3AIi-429" source="fdY3iPm0eYBTXGuh3AIi-441" target="fdY3iPm0eYBTXGuh3AIi-449" edge="1">
          <mxGeometry relative="1" as="geometry">
            <Array as="points">
              <mxPoint x="675.1300000000001" y="790" />
            </Array>
          </mxGeometry>
        </mxCell>
        <mxCell id="fdY3iPm0eYBTXGuh3AIi-441" value="โอนเงินสําเร็จ" style="rounded=0;whiteSpace=wrap;html=1;" parent="fdY3iPm0eYBTXGuh3AIi-429" vertex="1">
          <mxGeometry x="615.1300000000001" y="460" width="120" height="60" as="geometry" />
        </mxCell>
        <mxCell id="fdY3iPm0eYBTXGuh3AIi-442" style="edgeStyle=orthogonalEdgeStyle;rounded=0;orthogonalLoop=1;jettySize=auto;html=1;entryX=0.5;entryY=0;entryDx=0;entryDy=0;" parent="fdY3iPm0eYBTXGuh3AIi-429" source="fdY3iPm0eYBTXGuh3AIi-443" target="fdY3iPm0eYBTXGuh3AIi-439" edge="1">
          <mxGeometry relative="1" as="geometry" />
        </mxCell>
        <mxCell id="fdY3iPm0eYBTXGuh3AIi-443" value="จ่ายเงิน" style="shape=parallelogram;perimeter=parallelogramPerimeter;whiteSpace=wrap;html=1;fixedSize=1;" parent="fdY3iPm0eYBTXGuh3AIi-429" vertex="1">
          <mxGeometry x="420" y="380" width="120" height="60" as="geometry" />
        </mxCell>
        <mxCell id="fdY3iPm0eYBTXGuh3AIi-444" style="edgeStyle=orthogonalEdgeStyle;rounded=0;orthogonalLoop=1;jettySize=auto;html=1;entryX=0.5;entryY=0;entryDx=0;entryDy=0;" parent="fdY3iPm0eYBTXGuh3AIi-429" source="fdY3iPm0eYBTXGuh3AIi-445" target="fdY3iPm0eYBTXGuh3AIi-441" edge="1">
          <mxGeometry relative="1" as="geometry" />
        </mxCell>
        <mxCell id="fdY3iPm0eYBTXGuh3AIi-445" value="จ่ายเงิน" style="shape=parallelogram;perimeter=parallelogramPerimeter;whiteSpace=wrap;html=1;fixedSize=1;" parent="fdY3iPm0eYBTXGuh3AIi-429" vertex="1">
          <mxGeometry x="615.1300000000001" y="360" width="120" height="60" as="geometry" />
        </mxCell>
        <mxCell id="fdY3iPm0eYBTXGuh3AIi-446" style="edgeStyle=orthogonalEdgeStyle;rounded=0;orthogonalLoop=1;jettySize=auto;html=1;exitX=0;exitY=0.5;exitDx=0;exitDy=0;entryX=1;entryY=0.5;entryDx=0;entryDy=0;" parent="fdY3iPm0eYBTXGuh3AIi-429" source="fdY3iPm0eYBTXGuh3AIi-447" target="fdY3iPm0eYBTXGuh3AIi-454" edge="1">
          <mxGeometry relative="1" as="geometry">
            <mxPoint x="410.1300000000001" y="620" as="targetPoint" />
          </mxGeometry>
        </mxCell>
        <mxCell id="fdY3iPm0eYBTXGuh3AIi-447" value="จำนวนเงินเกินหรือไม่" style="rhombus;whiteSpace=wrap;html=1;" parent="fdY3iPm0eYBTXGuh3AIi-429" vertex="1">
          <mxGeometry x="420" y="560" width="120" height="120" as="geometry" />
        </mxCell>
        <mxCell id="fdY3iPm0eYBTXGuh3AIi-448" style="edgeStyle=orthogonalEdgeStyle;rounded=0;orthogonalLoop=1;jettySize=auto;html=1;entryX=0.5;entryY=0;entryDx=0;entryDy=0;" parent="fdY3iPm0eYBTXGuh3AIi-429" source="fdY3iPm0eYBTXGuh3AIi-449" target="siC57HpYKDQkwJZfV9jp-18" edge="1">
          <mxGeometry relative="1" as="geometry">
            <mxPoint x="575.1515151515159" y="940" as="targetPoint" />
          </mxGeometry>
        </mxCell>
        <mxCell id="fdY3iPm0eYBTXGuh3AIi-449" value="" style="ellipse;whiteSpace=wrap;html=1;aspect=fixed;" parent="fdY3iPm0eYBTXGuh3AIi-429" vertex="1">
          <mxGeometry x="555.1300000000001" y="770" width="40" height="40" as="geometry" />
        </mxCell>
        <mxCell id="siC57HpYKDQkwJZfV9jp-21" style="edgeStyle=orthogonalEdgeStyle;rounded=0;orthogonalLoop=1;jettySize=auto;html=1;" edge="1" parent="fdY3iPm0eYBTXGuh3AIi-429" source="fdY3iPm0eYBTXGuh3AIi-451" target="siC57HpYKDQkwJZfV9jp-18">
          <mxGeometry relative="1" as="geometry" />
        </mxCell>
        <mxCell id="fdY3iPm0eYBTXGuh3AIi-451" value="ทอนเงินให้ลูกค้าตามจำนวน" style="rounded=0;whiteSpace=wrap;html=1;" parent="fdY3iPm0eYBTXGuh3AIi-429" vertex="1">
          <mxGeometry x="240.1300000000001" y="958.5" width="110" height="60" as="geometry" />
        </mxCell>
        <mxCell id="fdY3iPm0eYBTXGuh3AIi-452" style="edgeStyle=orthogonalEdgeStyle;rounded=0;orthogonalLoop=1;jettySize=auto;html=1;entryX=0;entryY=0.5;entryDx=0;entryDy=0;exitX=0.5;exitY=1;exitDx=0;exitDy=0;" parent="fdY3iPm0eYBTXGuh3AIi-429" source="fdY3iPm0eYBTXGuh3AIi-447" target="fdY3iPm0eYBTXGuh3AIi-449" edge="1">
          <mxGeometry relative="1" as="geometry">
            <mxPoint x="620.1300000000001" y="732" as="targetPoint" />
            <Array as="points">
              <mxPoint x="480.1300000000001" y="790" />
            </Array>
          </mxGeometry>
        </mxCell>
        <mxCell id="fdY3iPm0eYBTXGuh3AIi-453" value="" style="edgeStyle=orthogonalEdgeStyle;rounded=0;orthogonalLoop=1;jettySize=auto;html=1;" parent="fdY3iPm0eYBTXGuh3AIi-429" source="fdY3iPm0eYBTXGuh3AIi-454" target="fdY3iPm0eYBTXGuh3AIi-456" edge="1">
          <mxGeometry relative="1" as="geometry" />
        </mxCell>
        <mxCell id="fdY3iPm0eYBTXGuh3AIi-454" value="&lt;span style=&quot;font-size: 12px;&quot;&gt;คำนวณเงินที่เกินมา&lt;/span&gt;" style="rounded=0;whiteSpace=wrap;html=1;" parent="fdY3iPm0eYBTXGuh3AIi-429" vertex="1">
          <mxGeometry x="235.1300000000001" y="590" width="120" height="60" as="geometry" />
        </mxCell>
        <mxCell id="fdY3iPm0eYBTXGuh3AIi-455" style="edgeStyle=orthogonalEdgeStyle;rounded=0;orthogonalLoop=1;jettySize=auto;html=1;exitX=0.5;exitY=1;exitDx=0;exitDy=0;entryX=0.5;entryY=0;entryDx=0;entryDy=0;" parent="fdY3iPm0eYBTXGuh3AIi-429" source="fdY3iPm0eYBTXGuh3AIi-456" target="fdY3iPm0eYBTXGuh3AIi-458" edge="1">
          <mxGeometry relative="1" as="geometry" />
        </mxCell>
        <mxCell id="fdY3iPm0eYBTXGuh3AIi-456" value="&lt;span style=&quot;font-size: 12px;&quot;&gt;คำนวณ&lt;/span&gt;เหรียญ/แบงค์&lt;span style=&quot;font-size: 12px;&quot;&gt;ในเครื่อง&lt;/span&gt;" style="rounded=0;whiteSpace=wrap;html=1;" parent="fdY3iPm0eYBTXGuh3AIi-429" vertex="1">
          <mxGeometry x="235.1300000000001" y="700" width="120" height="60" as="geometry" />
        </mxCell>
        <mxCell id="fdY3iPm0eYBTXGuh3AIi-457" value="" style="edgeStyle=orthogonalEdgeStyle;rounded=0;orthogonalLoop=1;jettySize=auto;html=1;" parent="fdY3iPm0eYBTXGuh3AIi-429" source="fdY3iPm0eYBTXGuh3AIi-458" target="fdY3iPm0eYBTXGuh3AIi-451" edge="1">
          <mxGeometry relative="1" as="geometry" />
        </mxCell>
        <mxCell id="fdY3iPm0eYBTXGuh3AIi-458" value="&lt;span style=&quot;font-size: 12px;&quot;&gt;มี&lt;/span&gt;เหรียญ/แบงค์ในเครื่องหรือไม่" style="rhombus;whiteSpace=wrap;html=1;" parent="fdY3iPm0eYBTXGuh3AIi-429" vertex="1">
          <mxGeometry x="200.1300000000001" y="795" width="190" height="115" as="geometry" />
        </mxCell>
        <mxCell id="fdY3iPm0eYBTXGuh3AIi-461" style="edgeStyle=orthogonalEdgeStyle;rounded=0;orthogonalLoop=1;jettySize=auto;html=1;exitX=0;exitY=0.5;exitDx=0;exitDy=0;entryX=0.438;entryY=1.059;entryDx=0;entryDy=0;entryPerimeter=0;" parent="fdY3iPm0eYBTXGuh3AIi-429" source="fdY3iPm0eYBTXGuh3AIi-458" target="siC57HpYKDQkwJZfV9jp-11" edge="1">
          <mxGeometry relative="1" as="geometry">
            <mxPoint x="123.38000000000011" y="740" as="targetPoint" />
          </mxGeometry>
        </mxCell>
        <mxCell id="fdY3iPm0eYBTXGuh3AIi-463" value="yes" style="text;html=1;align=center;verticalAlign=middle;whiteSpace=wrap;rounded=0;" parent="fdY3iPm0eYBTXGuh3AIi-429" vertex="1">
          <mxGeometry x="479.1300000000001" y="340" width="60" height="30" as="geometry" />
        </mxCell>
        <mxCell id="fdY3iPm0eYBTXGuh3AIi-464" value="yes" style="text;html=1;align=center;verticalAlign=middle;whiteSpace=wrap;rounded=0;" parent="fdY3iPm0eYBTXGuh3AIi-429" vertex="1">
          <mxGeometry x="685.1300000000001" y="320" width="60" height="30" as="geometry" />
        </mxCell>
        <mxCell id="fdY3iPm0eYBTXGuh3AIi-465" value="no" style="text;html=1;align=center;verticalAlign=middle;whiteSpace=wrap;rounded=0;" parent="fdY3iPm0eYBTXGuh3AIi-429" vertex="1">
          <mxGeometry x="499.1300000000001" y="760" width="60" height="30" as="geometry" />
        </mxCell>
        <mxCell id="fdY3iPm0eYBTXGuh3AIi-466" value="yes" style="text;html=1;align=center;verticalAlign=middle;whiteSpace=wrap;rounded=0;" parent="fdY3iPm0eYBTXGuh3AIi-429" vertex="1">
          <mxGeometry x="595.1300000000001" y="760" width="60" height="30" as="geometry" />
        </mxCell>
        <mxCell id="fdY3iPm0eYBTXGuh3AIi-467" value="yes" style="text;html=1;align=center;verticalAlign=middle;whiteSpace=wrap;rounded=0;" parent="fdY3iPm0eYBTXGuh3AIi-429" vertex="1">
          <mxGeometry x="295.1300000000001" y="900" width="60" height="30" as="geometry" />
        </mxCell>
        <mxCell id="fdY3iPm0eYBTXGuh3AIi-468" value="yes" style="text;html=1;align=center;verticalAlign=middle;whiteSpace=wrap;rounded=0;" parent="fdY3iPm0eYBTXGuh3AIi-429" vertex="1">
          <mxGeometry x="380.0100000000002" y="580" width="60" height="30" as="geometry" />
        </mxCell>
        <mxCell id="fdY3iPm0eYBTXGuh3AIi-469" value="no" style="text;html=1;align=center;verticalAlign=middle;whiteSpace=wrap;rounded=0;" parent="fdY3iPm0eYBTXGuh3AIi-429" vertex="1">
          <mxGeometry x="165.1300000000001" y="810" width="60" height="30" as="geometry" />
        </mxCell>
        <mxCell id="fdY3iPm0eYBTXGuh3AIi-470" value="no" style="text;html=1;align=center;verticalAlign=middle;whiteSpace=wrap;rounded=0;" parent="fdY3iPm0eYBTXGuh3AIi-429" vertex="1">
          <mxGeometry x="544.2600000000002" y="260" width="60" height="30" as="geometry" />
        </mxCell>
        <mxCell id="fdY3iPm0eYBTXGuh3AIi-471" value="" style="edgeStyle=orthogonalEdgeStyle;rounded=0;orthogonalLoop=1;jettySize=auto;html=1;" parent="fdY3iPm0eYBTXGuh3AIi-429" source="siC57HpYKDQkwJZfV9jp-14" target="fdY3iPm0eYBTXGuh3AIi-431" edge="1">
          <mxGeometry relative="1" as="geometry" />
        </mxCell>
        <mxCell id="siC57HpYKDQkwJZfV9jp-16" style="edgeStyle=orthogonalEdgeStyle;rounded=0;orthogonalLoop=1;jettySize=auto;html=1;exitX=0.5;exitY=1;exitDx=0;exitDy=0;exitPerimeter=0;entryX=0.5;entryY=0;entryDx=0;entryDy=0;" edge="1" parent="fdY3iPm0eYBTXGuh3AIi-429" source="fdY3iPm0eYBTXGuh3AIi-472" target="siC57HpYKDQkwJZfV9jp-14">
          <mxGeometry relative="1" as="geometry" />
        </mxCell>
        <mxCell id="fdY3iPm0eYBTXGuh3AIi-472" value="&lt;font style=&quot;font-size: 15px;&quot;&gt;เริ่มต้น&lt;/font&gt;" style="strokeWidth=1;html=1;shape=mxgraph.flowchart.terminator;whiteSpace=wrap;" parent="fdY3iPm0eYBTXGuh3AIi-429" vertex="1">
          <mxGeometry x="415" y="35" width="130" height="60" as="geometry" />
        </mxCell>
        <mxCell id="fdY3iPm0eYBTXGuh3AIi-473" value="&lt;span style=&quot;font-size: 15px;&quot;&gt;สิ้นสุด&lt;/span&gt;" style="strokeWidth=1;html=1;shape=mxgraph.flowchart.terminator;whiteSpace=wrap;" parent="fdY3iPm0eYBTXGuh3AIi-429" vertex="1">
          <mxGeometry x="509.26" y="1120" width="130" height="60" as="geometry" />
        </mxCell>
        <mxCell id="siC57HpYKDQkwJZfV9jp-17" style="edgeStyle=orthogonalEdgeStyle;rounded=0;orthogonalLoop=1;jettySize=auto;html=1;entryX=0;entryY=0.5;entryDx=0;entryDy=0;" edge="1" parent="fdY3iPm0eYBTXGuh3AIi-429" source="siC57HpYKDQkwJZfV9jp-11" target="siC57HpYKDQkwJZfV9jp-14">
          <mxGeometry relative="1" as="geometry">
            <Array as="points">
              <mxPoint x="130" y="131" />
            </Array>
          </mxGeometry>
        </mxCell>
        <mxCell id="siC57HpYKDQkwJZfV9jp-11" value="แสดงข้อความไม่สามารถทอนเงิน" style="shape=parallelogram;perimeter=parallelogramPerimeter;whiteSpace=wrap;html=1;fixedSize=1;" vertex="1" parent="fdY3iPm0eYBTXGuh3AIi-429">
          <mxGeometry x="70" y="700" width="120" height="60" as="geometry" />
        </mxCell>
        <mxCell id="siC57HpYKDQkwJZfV9jp-14" value="" style="ellipse;whiteSpace=wrap;html=1;aspect=fixed;" vertex="1" parent="fdY3iPm0eYBTXGuh3AIi-429">
          <mxGeometry x="459.63" y="111" width="39" height="39" as="geometry" />
        </mxCell>
        <mxCell id="siC57HpYKDQkwJZfV9jp-18" value="แสดงสรุปสินค้าและยอดเงินทั้งหมดที่เหลือ" style="shape=parallelogram;perimeter=parallelogramPerimeter;whiteSpace=wrap;html=1;fixedSize=1;" vertex="1" parent="fdY3iPm0eYBTXGuh3AIi-429">
          <mxGeometry x="506.76" y="957.5" width="135" height="62" as="geometry" />
        </mxCell>
        <mxCell id="siC57HpYKDQkwJZfV9jp-20" style="edgeStyle=orthogonalEdgeStyle;rounded=0;orthogonalLoop=1;jettySize=auto;html=1;entryX=0.5;entryY=0;entryDx=0;entryDy=0;entryPerimeter=0;" edge="1" parent="fdY3iPm0eYBTXGuh3AIi-429" source="siC57HpYKDQkwJZfV9jp-18" target="fdY3iPm0eYBTXGuh3AIi-473">
          <mxGeometry relative="1" as="geometry" />
        </mxCell>
      </root>
    </mxGraphModel>
  </diagram>
</mxfile>
